<svg width="2387" height="1686" fill="none" xmlns="http://www.w3.org/2000/svg"><g clip-path="url(#a)" stroke="#1A1714" stroke-miterlimit="10"><path d="M2380.97 1066.95c.07 36.18-8.91 72.2-24.8 104.86-5.79 27.52-16.16 53.69-31.14 78.53-13.42 16.75-26.84 33.51-40.26 50.27-13.18 12.64-27.3 23.6-42.32 32.93-17.12 15.67-35.74 28.65-55.88 38.93-5.36 3.76-10.91 7.21-16.74 10.16a248.94 248.94 0 0 1-40.59 23.32c-18.91 10.63-39.19 18.8-60.88 24.48-22.42 2.61-44.84 5.23-67.27 7.85-15.55.12-31.19 1.16-46.81 1.55-1.27-.2-2.62-.43-4.05-.65-2.13-.4-4.4-.81-6.79-1.12-2.38-.44-4.91-.91-7.59-1.42-2.64-.49-5.42-1.1-8.28-1.55-2.84-.63-5.81-1.28-8.87-1.96-1.53-.37-3.07-.72-4.64-1.05-1.57-.33-3.15-.66-4.75-1.03-1.6-.39-3.22-.77-4.86-1.16-1.64-.44-3.28-.88-4.96-1.32-3.33-.82-6.72-1.81-10.2-2.55-6.94-1.72-13.95-4.03-21.22-5.96-5.24-1.55-10.56-3.02-15.91-4.6a208.5 208.5 0 0 0 7.1-6.46c2.67-2.31 5.12-4.84 7.59-7.33 2.44-2.51 4.92-4.96 7.17-7.59 2.29-2.58 4.55-5.16 6.82-7.71 2.14-2.64 4.28-5.25 6.39-7.85 1.05-1.29 2.16-2.55 3.14-3.89.98-1.33 1.96-2.66 2.94-3.97 1.91-2.66 3.88-5.24 5.64-7.92 3.49-5.39 6.98-10.57 9.99-15.86 1.56-2.61 3.09-5.18 4.56-7.73 1.37-2.61 2.71-5.17 4.04-7.69 2.69-5.03 4.92-10.05 7.11-14.83 2.31-4.72 4.1-9.45 5.88-13.87.87-2.24 1.78-4.38 2.5-6.52.73-2.15 1.45-4.22 2.15-6.22 2.96-7.94 4.75-15.17 6.45-21 .9-2.89 1.42-5.57 1.97-7.87.51-2.3.94-4.27 1.29-5.86.65-3.19 1.01-4.88 1.01-4.88s-.93 1.47-2.64 4.24c-.84 1.39-1.87 3.09-3.09 5.1-1.25 1.99-2.53 4.34-4.11 6.89-3.21 5.1-6.96 11.32-11.42 18.3-1.11 1.74-2.25 3.54-3.44 5.39-1.15 1.87-2.48 3.7-3.75 5.63-2.61 3.83-5.17 7.93-8.1 12.03-2.92 4.1-5.87 8.43-9.18 12.71-1.6 2.16-3.22 4.36-4.88 6.6-1.71 2.18-3.44 4.41-5.19 6.66-3.43 4.55-7.35 8.89-11.16 13.47-1.91 2.28-3.99 4.43-5.99 6.71l-3.02 3.41c-.98 1.16-2.09 2.23-3.12 3.37-2.12 2.22-4.26 4.47-6.4 6.72-2.24 2.15-4.5 4.3-6.79 6.48-2.22 2.23-4.65 4.26-7 6.39-2.37 2.12-4.68 4.32-7.15 6.34a308.615 308.615 0 0 1-23.05 18.01c-2.57 1.8-5.17 3.58-7.79 5.31-9.28 6.39-18.92 12.27-28.83 17.44-1.5.78-3 1.54-4.51 2.29-2.83 1.48-5.76 2.79-8.62 4.19-2.87 1.39-5.69 2.82-8.59 4.08-2.88 1.28-5.73 2.63-8.59 3.87-2.91 1.16-5.79 2.32-8.64 3.46-1.43.58-2.87 1.11-4.32 1.62-1.43.53-2.87 1.05-4.29 1.58-2.85 1.07-5.66 2.16-8.5 3.09-2.82 1-5.62 1.97-8.37 2.94-2.8.88-5.56 1.74-8.29 2.6-1.37.43-2.73.84-4.08 1.26-1.36.39-2.71.77-4.05 1.14-2.68.79-5.32 1.56-7.92 2.32-2.62.71-5.19 1.41-7.72 2.1-2.54.66-5 1.42-7.47 1.99-2.46.57-4.87 1.14-7.22 1.72-2.36.59-4.66 1.17-6.92 1.67-4.52 1.01-8.79 2.12-12.85 2.96-4.06.82-7.86 1.66-11.39 2.48-3.52.73-6.77 1.41-9.7 2.02-5.93 1.23-10.58 2.19-13.75 2.85-3.18.7-4.87 1.08-4.87 1.08s1.72.24 4.96.68c1.6.2 3.59.44 5.93.71 1.17.13 2.43.27 3.77.43 1.35.11 2.77.21 4.29.3 3.05.23 6.4.47 10.08.73 3.65.15 7.61.29 11.86.34 4.24.12 8.75.02 13.53-.01 2.38 0 4.83-.11 7.33-.24 2.51-.14 5.07-.3 7.68-.44 2.63-.12 5.29-.41 8.01-.63 2.73-.24 5.5-.46 8.32-.77 2.82-.36 5.69-.74 8.6-1.11 1.46-.2 2.92-.4 4.4-.62 1.46-.26 2.94-.52 4.43-.79 2.99-.53 6.01-1.07 9.07-1.6 3.06-.65 6.14-1.3 9.26-1.97 3.14-.63 6.27-1.43 9.43-2.29 1.58-.43 3.15-.85 4.75-1.28 1.59-.43 3.18-.89 4.75-1.43 3.19-1.01 6.39-2.02 9.61-3.05 1.61-.53 3.23-1.09 4.84-1.66-8.16 2.88-17.5 12.32-24.54 17.4-9.35 6.75-18.57 13.71-28.82 19.06-43.29 22.6-86.6 41.91-131.91 60.02-11.96 4.79-24.35 8.46-36.94 11.2-4.12 1.36-8.23 2.71-12.37 4.01-9.44 2.95-18.93 5.63-28.6 7.73-31.65 6.91-64.62 9.78-96.63 12.45-9.95.82-19.89.69-29.86.63-9.22-.06-18.46-.11-27.68-.17-4.77-.02-9.52-.2-14.26-.53.64-2.5 1.28-4.9 1.71-7.34.56-2.51.96-4.99 1.29-7.4l.21-1.79c.05-.61.08-1.2.12-1.79.06-1.17.13-2.33.19-3.46.19-2.24.26-4.4.26-6.44-.08-2.15-.24-4.15-.38-6.01-.11-1.86-.3-3.59-.52-5.17-.23-1.59-.64-2.96-.89-4.26-.51-2.54-1.27-4.6-1.6-5.98-.46-1.4-.7-2.15-.7-2.15s-.52.59-1.49 1.71c-.85 1.14-2.35 2.75-3.76 4.91-.66.9-1.36 1.96-2.16 3-.77 1.73-1.54 3.47-2.31 5.2a250.262 250.262 0 0 1-23.39 32.25c-.44-.09-.88-.19-1.3-.3-24.84-5.41-48.84-14.72-70.94-27.32-10.3-2.74-20.51-5.87-30.49-9.63-16.44-6.2-32.77-12.86-48.84-20.06-7.93 9.9-15.86 19.81-23.79 29.72-38.32 36.74-81.6 64.64-129.861 83.65-2.03.82-4.05 1.6-6.11 2.35-3.77-2.03-7.49-4.16-11.16-6.4-4.29-2.64-8.49-5.38-12.57-8.24-2.88-1.33-5.57-2.76-8.26-3.98-1.47-.66-2.83-1.4-4.19-2.07-1.36-.69-2.69-1.35-3.97-2-5-2.77-9.65-5.05-13.24-7.16-3.65-2.06-6.73-3.77-8.7-4.98-1.93-1.07-3.02-1.66-3.15-1.73.06.13.58 1.26 1.52 3.26 1.11 2.06 2.43 5.24 4.91 8.89 2.3 3.83 5.26 8.32 9.14 13.1.97 1.2 1.98 2.42 3.02 3.69 1.06 1.27 2.12 2.6 3.31 3.84 2.37 2.51 4.83 5.28 7.67 7.78 1.4 1.32 2.81 2.66 4.27 4.02.66.59 1.34 1.19 2.03 1.78-3.81 1.12-7.66 2.19-11.52 3.2-35.23 4.1-70.48 8.22-105.71 12.33-3.15.02-6.35.25-9.5.11-71.63-1.48-138.08-20.71-199.36-57.69-26.41-21.15-52.83-42.3-79.24-63.46-.91-.95-1.81-1.92-2.73-2.88-24.65 10.2-49.59 21.81-75.37 29.69-32.77 10.02-69.7 11.65-102.68 15.31-13.4 1.47-26.89 1.6-40.31.49-42.6-.88-82.3-11.67-119.11-32.34-23.33-10.75-45.05-25.04-64.09-42.22-10.27-6.76-19.61-15.25-26.92-24.41-22.92-28.72-31.07-38.19-40.36-62.36-7.27-18.92-16.34-31.54-19.17-52.45-2.62-19.34-2.56-40.53-1.78-58.97 1.48-34.66 10.83-65.95 24.67-97.45 2.55-5.8 4.31-11.82 6.28-17.37 2.12-5.42 3.68-10.83 5.13-15.86.81-2.47 1.47-4.9 2.07-7.23.58-2.35 1.23-4.6 1.78-6.71 1.19-4.19 1.9-8.03 2.56-11.14.71-3.09.96-5.7 1.28-7.4.46-.54.46-1.54.46-2.54-14 8-31 30-33 29-82.41-68.8-75.85-181.76-44.74-279.23 7.78-24.37 17.09-47.77 26.96-69.27 36.76-76.5 93.76-145.5 166.77-189.71 20.86-12.91 42.87-24.08 65.68-32.9 45.62-17.64 94.42-25.87 143.54-19.84 5.82.94 11.97.79 18.1.79 10.91 0 21.24 2.42 32 .9 2.67-.33 4.86-.94 6.31-1.17 1.48-.36 2.28-.54 2.28-.54s-.59-.57-1.7-1.62c-1.14-.92-2.75-2.54-4.92-4.09-2.15-1.68-4.73-3.78-7.81-5.74-2.56-1.75-5.41-3.7-8.55-5.52 32.34-29.71 68.13-53.29 107.36-70.75 57.56-29.4 122.08-44.72 187.52-43.58 104.74 1.83 205.61 45.72 278.341 121.03 23.97 24.83 44.75 53.02 61.67 83.44 3.17-.9 6.33-1.79 9.53-2.62 35.23-4.11 70.47-8.23 105.7-12.33 53.29 0 106.27 12.31 154.92 34.3 32.79-31.21 69.2-55.98 109.24-74.29 6.56-14.4 14.01-28.55 22.38-42.43 21.15-26.4 42.3-52.8 63.44-79.22 50.37-48.31 109.32-81.31 176.87-98.98 38.3-9.58 76.53-13.59 114.64-12.06h.56c71.57 1.47 137.96 20.68 199.18 57.62 26.39 21.14 52.77 42.28 79.16 63.4 39.74 41.44 69.12 88.67 88.1 141.73-2.76-1.43-5.49-2.77-8.25-3.97-2.13-.94-4.2-1.9-6.28-2.73-2.09-.82-4.14-1.62-6.15-2.41-1-.4-1.98-.79-2.95-1.19-.98-.38-1.98-.7-2.96-1.04-1.96-.66-3.86-1.28-5.74-1.87-1.85-.63-3.72-1.09-5.51-1.57-1.8-.46-3.54-.92-5.24-1.35-6.77-1.67-12.78-2.61-17.81-3.19-4.96-.77-8.83-.65-11.48-.83-2.66-.05-4.08-.07-4.08-.07s1.2.77 3.44 2.22c2.26 1.33 5.63 3.44 9.66 5.98 4.04 2.49 8.81 5.91 14.27 9.48 1.34.95 2.71 1.93 4.14 2.94 1.41 1.01 2.88 2 4.33 3.13 1.47 1.09 2.96 2.21 4.5 3.36l2.34 1.7c.77.59 1.55 1.19 2.35 1.79 1.56 1.22 3.15 2.47 4.79 3.73 1.61 1.27 3.21 2.66 4.86 4 3.33 2.64 6.66 5.55 10.16 8.36 6.89 5.84 13.79 12.38 21.08 18.93 3.69 3.21 7.17 6.83 10.8 10.34 3.51 3.66 7.17 7.21 10.86 10.85 7.4 7.18 14.62 14.87 21.66 22.73 7.32 7.6 14.27 15.59 21.36 23.28 23.88 25.92 39.9 51.29 51.46 84.9 4.91 11.77 9 23.94 12.16 36.47 1.9 7.54 3.45 15.2 4.71 22.92.19.6.39 1.2.57 1.79 1.07 3.57 1.99 7.19 2.64 10.85 5.35 30.2 9.01 60.89 10.45 91.54.92 19.79.57 39.63.62 59.43l-.01-.03Z" fill="#fff" stroke-width="11"/><path d="M1562.46 882.64s-.09-.18-.25-.53c-.12-.3-.39-.84-.62-1.33-.24-.5-.57-1.18-.94-1.63-.05-.06-.1-.12-.16-.17l-.05-.03s-.07-.05.05.04l.5.36c.31.21.62.42.94.63.27.18.66.36.85.49.23.13.54.23.68.29.21.05.34.05.36.03-.02-.06-.13.41.03.95.05.35.15.63.27 1.02.12.42.26.78.43 1.22.17.46.36.93.56 1.38l.33.77.3.66c.12.27.17.54.16.79.01.52.04 1.21-.14 1.62-.18.41-.21 1.1-.53 1.36-.27.34-.54.69-.82 1.03-.37.22-.7.47-1.14.55-.35.18-.96.04-1.38.07-.39.04-.99-.18-1.47-.36-.22-.07-.46-.2-.7-.36l-.09-.06-.2-.15c-.24-.17-.48-.34-.73-.5-.45-.31-.89-.58-1.31-.81-.8-.46-1.49-.76-2-.89-.49-.15-.81-.11-.88-.07-.09.05.09-.04.21-.27.12-.19.28-.65.34-.91-.11.48.04 1.08.13 1.39.1.37.17.56.17.56s-.06.2-.22.56c-.17.3-.41.88-.99 1.25-.3.19-.69.42-1.36.4-.3.01-.75-.13-1.15-.34-.45-.27-.87-.65-1.21-1.18-.71-1.03-.92-2.15-1.03-2.99-.11-.82-.12-1.49-.1-2.08-.01-1.2 0-2.23.2-3.1.14-.91.25-1.84.61-2.51.34-.69.54-1.53 1.01-2.06.39-.62.92-1.07 1.44-1.53.61-.33 1.22-.64 1.83-.94.58-.35 1.44-.28 2.13-.42.68-.17 1.57 0 2.42.07.41.01.87.07 1.4.15.55.09 1.03.17 2.21.2h.66l.34.03c.23.01.46.03.68.07.23.04.45.08.66.15l.16.05.34.11c.23.08.46.18.67.29a5.41 5.41 0 0 1 2.72 3.23c.09.3.09.39.13.6.05.37.07.74.05 1.11-.01.18-.03.36-.06.54-.03.17-.04.17-.07.27-.05.15-.1.29-.15.44-.28.69-.43.75-.62.99-.22.25-.32.25-.48.36-.15.09-.29.16-.41.18-.25.07-.48.12-.68.12-.78.08-1.5-.16-2.09-.32-.54-.12-1.08-.39-1.39-.52-.35-.17-.54-.26-.54-.26l-.01-.06Z" fill="#1A1714"/><path d="M1526.91 889.75s.92-.47 2.64-1.36c1.73-.84 4.3-2.13 7.42-3.81 3.15-1.59 6.88-3.79 11.18-6.15 2.12-1.25 4.37-2.57 6.74-3.97 2.36-1.42 4.83-2.91 7.42-4.47 5.13-3.18 10.61-6.73 16.49-10.41 5.86-3.69 11.94-7.8 18.45-11.76 6.49-3.96 13.11-8.36 20.17-12.3 7.01-4.03 14.28-8.01 21.68-11.84 7.48-3.67 15.17-7.11 22.96-10.02 7.77-3.02 15.8-5.11 23.58-6.97 3.94-.81 7.8-1.64 11.67-2.04 1.93-.21 3.81-.54 5.71-.62 1.89-.12 3.76-.24 5.6-.35 1.83-.18 3.67-.09 5.46-.11 1.8.03 3.55-.03 5.29.1 1.73.14 3.43.28 5.1.42.83.07 1.65.15 2.46.22.81.12 1.61.25 2.41.37 3.17.48 6.2.87 9.02 1.64 2.82.71 5.5 1.28 7.93 2.17 2.45.8 4.74 1.49 6.79 2.34 2.02.89 3.88 1.7 5.56 2.44 1.69.67 3.12 1.46 4.36 2.15 1.23.69 2.28 1.27 3.14 1.74 1.68.96 2.58 1.48 2.58 1.48s-1.03-.15-2.96-.42c-.95-.15-2.12-.34-3.5-.55-1.37-.23-2.93-.5-4.7-.69-1.75-.2-3.69-.42-5.81-.67-2.1-.22-4.4-.27-6.8-.5-2.4-.24-5-.12-7.68-.17-2.68-.11-5.51.14-8.42.21-.73.03-1.46.06-2.21.1-.74.08-1.49.16-2.25.25-1.5.15-3.04.31-4.6.47-1.55.15-3.13.48-4.72.69-1.59.27-3.21.4-4.84.77-1.62.34-3.27.68-4.93 1.02-1.66.3-3.32.85-5.01 1.25-3.38.79-6.77 1.93-10.25 2.87-6.92 2.19-13.89 4.99-20.99 7.94-7.05 3.09-14.21 6.32-21.29 9.91-7.15 3.45-14.26 7.09-21.25 10.84-6.96 3.8-14.05 7.2-20.83 10.75-6.76 3.57-13.54 6.67-19.98 9.62-6.4 3.01-12.69 5.49-18.52 7.67-2.89 1.14-5.75 2.06-8.43 2.98-2.71.88-5.32 1.6-7.74 2.31-4.88 1.37-9.2 2.32-12.82 2.94-3.56.79-6.39.97-8.31 1.23l-2.96.29h-.01ZM1324.71 1555.87c-.77 1.73-1.54 3.47-2.31 5.2a250.262 250.262 0 0 1-23.39 32.25c-2.64 3.09-5.35 6.12-8.14 9.07 1.27-2.05 2.81-3.92 4.24-5.83.87-1.19 1.74-2.36 2.6-3.53.56-.76 1.1-1.52 1.62-2.29.33-.5.67-.98 1.01-1.46.33-.49.65-.97.97-1.46.65-.96 1.34-1.9 2.04-2.82 1.36-1.86 2.89-3.63 4.07-5.48 1.17-1.85 2.47-3.62 3.77-5.32.33-.43.66-.84.98-1.27.31-.43.61-.84.9-1.27.6-.84 1.2-1.67 1.79-2.49 1.1-1.65 2.29-3.21 3.45-4.72 1.05-1.47 2.11-2.88 3.12-4.24.94-1.36 1.93-2.64 2.89-3.84.13-.17.26-.33.39-.5ZM1139.78 1679.87c-52.09 6.67-105.79-3.11-152.12-28.12-3.77-2.03-7.49-4.16-11.16-6.4-4.29-2.64-8.49-5.38-12.57-8.24.24.12.49.24.72.34 1.56.71 3.17 1.43 4.8 2.17 1.66.69 3.34 1.4 5.05 2.11 3.37 1.49 6.96 2.82 10.49 4.39 1.79.76 3.67 1.39 5.54 2.1 1.07.4 2.13.81 3.22 1.19.81.3 1.62.58 2.45.85 1.93.65 3.88 1.33 5.81 2.04 1.97.64 3.95 1.32 5.92 2.04 7.93 2.79 16.41 4.81 24.85 7.31 8.49 2.37 17.21 4.48 26.07 6.06 8.77 1.94 17.65 3.5 26.45 4.98 2.21.34 4.4.69 6.58 1.02 2.19.34 4.36.72 6.53 1.1 4.35.62 8.64 1.41 12.91 1.81 8.58 1.02 16.88 2 24.74 2.94 1.24.08 2.48.19 3.7.31h.02Z" fill="#1A1714"/><path d="M1675.35 891.1s-.12-.07-.34-.21l-.42-.27c-.2-.14-.42-.31-.68-.52-.25-.2-.53-.44-.83-.72-.29-.26-.62-.61-.97-1.04-.7-.85-1.39-1.91-1.92-3.28-.29-.7-.43-1.32-.58-2.04-.07-.35-.13-.73-.17-1.09-.03-.31-.04-.63-.05-.96-.01-.33 0-.67 0-1.01.01-.35.05-.58.08-.88.07-.55.17-1.23.3-1.67.51-2.08 1.26-3.62 2.05-5.01 1.61-2.77 3.52-5.15 5.77-7.67 2.25-2.52 4.84-5.11 7.76-7.89 5.84-5.54 13.03-11.77 21.23-18.77 4.09-3.5 8.43-7.2 12.88-11.12 2.22-1.96 4.47-3.97 6.66-6.04l.82-.78.21-.19.61-.57.12-.09.47-.38c.62-.51 1.24-1.02 1.87-1.53 1.25-1.03 2.52-2.06 3.81-3.11 4.98-4.22 10.83-8.49 16.69-12.92 2.96-2.18 6.04-4.21 9.12-6.37 1.55-1.07 3.11-2.14 4.68-3.23 1.61-1.02 3.24-2.05 4.87-3.09s3.28-2.08 4.94-3.13c1.65-1.05 3.31-2.12 5.04-3.09 3.43-1.99 6.91-4 10.42-6.04 7.15-3.84 14.43-7.81 22.07-11.35 15.19-7.25 31.31-13.83 48.05-19.38a433.62 433.62 0 0 1 51.63-13.44c17.53-3.43 35.25-5.8 52.75-7.05 17.51-1.2 34.78-1.34 51.44-.59 2.08.11 4.15.21 6.22.32 2.06.11 4.12.19 6.16.4 4.08.35 8.12.7 12.11 1.05 3.99.42 7.92.94 11.81 1.4 3.89.42 7.71 1.06 11.48 1.65 7.55 1.07 14.82 2.59 21.86 3.93 3.51.72 6.94 1.57 10.31 2.33 1.69.39 3.36.77 5.01 1.15 1.66.38 3.27.85 4.88 1.27 25.75 6.69 46.48 14.58 60.69 20.67 3.54 1.55 6.75 2.84 9.46 4.13 2.71 1.29 5.02 2.38 6.89 3.27 3.74 1.77 5.73 2.72 5.73 2.72s-2.03-.88-5.83-2.52c-1.9-.82-4.24-1.84-6.99-3.03-2.75-1.19-6-2.37-9.58-3.79-14.38-5.58-35.31-12.73-61.08-18.49-1.61-.36-3.22-.78-4.88-1.09-1.65-.32-3.32-.64-5.01-.97-3.37-.63-6.79-1.36-10.3-1.95-7.03-1.1-14.27-2.34-21.78-3.15-3.75-.46-7.54-.96-11.4-1.24-3.86-.32-7.76-.71-11.71-.98-3.96-.2-7.95-.41-11.99-.62-2.02-.14-4.05-.14-6.09-.18-2.04-.04-4.08-.07-6.14-.1-16.44-.17-33.42.55-50.56 2.32-17.13 1.83-34.4 4.75-51.41 8.68a422.097 422.097 0 0 0-49.85 14.83c-16.08 5.95-31.48 12.87-45.92 20.38-7.27 3.67-14.15 7.75-20.92 11.68-3.31 2.08-6.59 4.13-9.83 6.16-1.63.99-3.19 2.08-4.75 3.14s-3.1 2.12-4.64 3.17c-1.54 1.05-3.06 2.09-4.58 3.12-1.47 1.09-2.93 2.18-4.38 3.26-2.88 2.17-5.8 4.24-8.51 6.39-5.38 4.38-10.57 8.39-15.55 12.92-1.25 1.09-2.48 2.17-3.7 3.24-.61.53-1.21 1.07-1.82 1.59l-.45.4-.11.1c.98-.9.21-.18.4-.36l-.22.23-.88.9c-2.34 2.36-4.63 4.56-6.87 6.68-4.47 4.22-8.72 8.09-12.68 11.73-7.92 7.26-14.71 13.56-19.9 18.84-2.59 2.63-4.79 5.01-6.47 7.03-1.69 2-2.86 3.72-3.28 4.56-.23.41-.19.57-.04.03 0-.06.09-.36.1-.55 0-.12.02-.24.03-.35.01-.17.02-.34.01-.5 0-.16-.02-.32-.04-.48-.02-.2-.04-.43-.08-.64-.08-.43-.2-.76-.36-1.23-.16-.43-.36-.82-.57-1.15-.19-.35-.41-.66-.63-.92-.24-.27-.45-.48-.59-.64a5.78 5.78 0 0 0-.88-.72c-.08-.06-.15-.11-.2-.14-.11-.07-.16-.11-.16-.11-.69-.38-.93-.47-1.29-.53-.11-.04-.41 0-.34.04v.1s.07.08.1.12c.09.09.18.21.37.32.6.48 1.56 1.06 2.4 1.83.42.37.83.79 1.22 1.25.39.46.86.92 1.21 1.45a9.367 9.367 0 0 1 1.54 3.55 9.338 9.338 0 0 1-.61 5.68c-.32.58-.72 1.14-1.2 1.67-.96 1.04-2.16 1.93-3.9 2.5-.86.28-1.88.48-3.14.5-.67-.01-1.29-.02-2.17-.19l-.62-.12-.31-.07-.38-.12c-.51-.16-1.01-.34-1.51-.55-.37-.17-.88-.44-1.25-.66l-.04-.02Z" fill="#1A1714"/><path d="M1695.29 867.05s.03-.43.08-1.27c.02-.42.06-.94.09-1.56.03-.61.07-1.33.2-2.22.22-1.74.49-3.9.81-6.43.36-2.5.6-5.5 1.29-8.56.61-3.11 1.29-6.56 2.02-10.31.95-3.68 1.98-7.67 3.08-11.92 1.2-4.21 2.7-8.62 4.16-13.3 1.62-4.62 3.47-9.41 5.36-14.42 8.03-19.84 19.57-41.89 33.97-64.05 7.35-10.97 15.13-22.17 23.77-32.98 4.18-5.51 8.75-10.77 13.18-16.16 2.27-2.66 4.62-5.25 6.92-7.88l3.48-3.94c1.16-1.31 2.39-2.57 3.58-3.85 37.91-41.32 82.95-75.52 120-94.98 18.44-9.89 34.74-16.21 46.34-19.84 2.91-.88 5.48-1.75 7.77-2.35 2.29-.56 4.24-1.04 5.83-1.43 3.16-.78 4.84-1.19 4.84-1.19s-1.67.49-4.79 1.4c-1.56.46-3.48 1.02-5.74 1.68-2.25.7-4.78 1.68-7.64 2.69-11.39 4.12-27.29 11.11-45.13 21.7-35.83 20.86-78.8 56.62-114.2 98.78-1.11 1.31-2.26 2.59-3.34 3.93l-3.24 4.01c-2.15 2.68-4.34 5.32-6.44 8.02-4.11 5.47-8.35 10.8-12.19 16.36-7.97 10.91-15.05 22.15-21.72 33.09-13.02 22.08-23.13 43.74-29.9 62.82-1.57 4.81-3.12 9.4-4.45 13.79-1.17 4.43-2.39 8.61-3.33 12.57-.85 3.97-1.63 7.69-2.37 11.13-.52 3.46-1 6.63-1.43 9.5-.52 2.89-.57 5.33-.8 7.51-.19 2.16-.35 4-.48 5.49-.08.72-.1 1.44-.1 2.07 0 .62-.02 1.14-.02 1.56-.01.84-.02 1.27-.02 1.27-.06 4.42-4.48 7.9-9.85 7.78-5.37-.11-9.68-3.79-9.61-8.21 0-.08 0-.2.01-.29l.01-.01Z" fill="#1A1714"/><path d="M1684.18 888.32s.49-.77 1.4-2.21c1.02-1.5 2.52-3.7 4.42-6.51 3.84-5.41 9.56-12.99 17.21-21.37 7.64-8.37 17.32-17.45 28.65-25.87 5.66-4.21 11.79-8.17 18.16-11.9 6.4-3.69 13.16-6.97 20.03-9.89 6.89-2.91 13.99-5.24 21.04-7.22 7.07-1.93 14.14-3.28 21-4.3a176.79 176.79 0 0 1 37.65-1.01c10.96.89 19.94 2.61 26.16 3.96 3.11.68 5.52 1.36 7.18 1.76 1.65.42 2.53.64 2.53.64l-2.58-.43c-1.68-.25-4.13-.73-7.28-1.15-6.29-.83-15.31-1.78-26.12-1.75-10.8.03-23.38 1.13-36.44 4.03-6.51 1.54-13.15 3.39-19.71 5.79-6.54 2.44-13.06 5.21-19.31 8.49-6.24 3.3-12.3 6.89-17.99 10.84-5.66 3.98-11.05 8.13-15.97 12.49-9.85 8.7-18.08 17.82-24.45 26.11a206.023 206.023 0 0 0-14.12 20.89c-1.46 2.59-2.61 4.62-3.39 6l-1.21 2.31c-1.06 2.06-5.73 1.56-10.4-1.09-4.68-2.65-7.6-6.46-6.53-8.51.02-.04.05-.09.08-.13l-.01.03ZM1871.06 743.29l2.36-1.44c1.49-.99 3.7-2.36 6.47-4.23 1.38-.95 2.91-1.99 4.58-3.13 1.64-1.17 3.42-2.45 5.32-3.8 1.88-1.39 3.87-2.87 5.98-4.43 2.08-1.6 4.27-3.28 6.55-5.03 4.53-3.56 9.42-7.44 14.55-11.63 5.13-4.2 10.54-8.62 16.14-13.2 11.2-9.17 23.28-18.88 35.83-28.04 6.3-4.55 12.68-8.98 19.13-13.11 6.47-4.09 12.92-8.02 19.37-11.43 3.18-1.79 6.43-3.32 9.56-4.92 3.19-1.48 6.28-2.97 9.36-4.28 3.09-1.28 6.06-2.6 9.03-3.65 1.47-.55 2.92-1.09 4.34-1.62 1.42-.52 2.85-.95 4.23-1.42 1.38-.45 2.74-.9 4.07-1.33 1.34-.38 2.65-.75 3.93-1.12 2.55-.73 4.97-1.41 7.28-1.92 2.31-.52 4.44-1.09 6.45-1.46 2.01-.37 3.85-.72 5.52-1.03 1.66-.34 3.16-.53 4.46-.71 1.3-.18 2.41-.33 3.31-.46 1.79-.25 2.75-.38 2.75-.38s-.94.21-2.71.59c-.88.19-1.98.43-3.26.71-1.28.27-2.76.58-4.38 1.03-1.63.43-3.44.9-5.4 1.42-1.96.51-4.05 1.22-6.29 1.89-2.25.65-4.6 1.49-7.08 2.37l-3.81 1.35c-1.28.51-2.59 1.03-3.93 1.56-1.33.54-2.71 1.05-4.09 1.64-1.37.6-2.77 1.21-4.19 1.84-2.86 1.2-5.72 2.66-8.69 4.06-2.96 1.44-5.94 3.05-9 4.65-3 1.72-6.13 3.36-9.19 5.24-6.2 3.61-12.41 7.7-18.66 11.91-6.23 4.26-12.42 8.79-18.56 13.39-12.24 9.28-24.17 19-35.4 28.13-5.62 4.56-11.07 8.96-16.29 13.09-5.21 4.14-10.22 7.96-14.88 11.45-2.35 1.72-4.61 3.36-6.76 4.92-2.18 1.52-4.23 2.99-6.19 4.32-1.97 1.32-3.82 2.55-5.53 3.69-1.74 1.1-3.33 2.11-4.77 3.02-2.9 1.8-5.25 3.14-6.82 4.09-1.58.88-2.43 1.35-2.43 1.35-2.16 1.17-4.42 1.32-5.04.33-.62-.99.55-2.86 2.63-4.19.04-.02.09-.06.14-.08h.01ZM879.589 911.83s-1.711-1.47-4.931-4.22c-3.21-2.68-7.939-6.37-13.939-11.21-12.3-9.43-30.25-22.59-53.16-36.28-2.87-1.69-5.75-3.53-8.79-5.2-3.03-1.69-6.13-3.41-9.27-5.16-1.571-.87-3.16-1.75-4.761-2.64-1.63-.84-3.269-1.68-4.919-2.53-3.31-1.7-6.66-3.43-10.07-5.18-3.44-1.68-6.961-3.31-10.511-5.01-1.78-.84-3.56-1.69-5.359-2.54-1.8-.85-3.65-1.61-5.49-2.42-3.69-1.61-7.42-3.23-11.18-4.87-3.81-1.53-7.671-3.07-11.551-4.62-1.95-.77-3.9-1.54-5.86-2.32-1.98-.72-3.969-1.44-5.969-2.16-4-1.43-8.011-2.96-12.091-4.33-4.1-1.34-8.219-2.69-12.359-4.05l-3.11-1.02-3.151-.93c-2.1-.62-4.21-1.24-6.32-1.86-2.109-.62-4.229-1.24-6.349-1.87-2.12-.63-4.271-1.14-6.411-1.72-4.29-1.12-8.599-2.23-12.909-3.35-8.69-1.98-17.401-4.09-26.211-5.72-8.77-1.86-17.63-3.18-26.44-4.69-8.85-1.19-17.649-2.56-26.449-3.41-8.77-1.07-17.521-1.67-26.161-2.38-4.32-.31-8.63-.48-12.9-.72l-6.389-.33c-2.12-.09-4.24-.11-6.341-.17-4.21-.1-8.39-.21-12.53-.31l-12.299.03c-2.03 0-4.05.01-6.06.02-2.01.06-4.001.11-5.981.17-3.97.12-7.88.24-11.75.36-3.86.15-7.669.42-11.419.62-3.75.25-7.46.36-11.081.7-3.629.31-7.199.61-10.699.9-1.75.15-3.49.29-5.2.44-1.71.19-3.41.38-5.09.56-13.44 1.4-25.73 3.09-36.59 4.78-5.42.9-10.5 1.74-15.19 2.51-4.67.9-8.97 1.72-12.84 2.46l-5.5 1.05c-1.72.38-3.331.73-4.831 1.05-3 .65-5.549 1.21-7.609 1.66-4.14.9-6.34 1.39-6.34 1.39s2.189-.56 6.289-1.6c2.05-.52 4.58-1.16 7.56-1.92 1.49-.38 3.09-.79 4.79-1.22 1.72-.39 3.541-.8 5.471-1.24 3.86-.87 8.119-1.84 12.769-2.9 4.67-.94 9.73-1.95 15.13-3.03 10.82-2.06 23.08-4.18 36.53-6.03 1.68-.24 3.38-.49 5.09-.74 1.72-.2 3.461-.41 5.211-.62 3.51-.42 7.08-.84 10.72-1.27 3.63-.47 7.349-.71 11.109-1.08 3.77-.33 7.59-.73 11.47-1.01 3.89-.25 7.82-.5 11.81-.76 1.991-.12 4.001-.25 6.021-.38 2.02-.07 4.049-.15 6.099-.22 4.09-.15 8.221-.3 12.391-.45l12.64-.12c2.13-.01 4.26-.06 6.409-.04l6.451.12c4.32.1 8.669.12 13.049.29 8.75.42 17.621.74 26.531 1.52 8.93.56 17.879 1.64 26.899 2.55 8.97 1.23 18.021 2.27 26.981 3.86 9 1.36 17.919 3.2 26.829 4.92 4.43.99 8.85 1.98 13.25 2.97 2.2.51 4.411.96 6.591 1.53 2.18.56 4.359 1.12 6.529 1.68l6.51 1.68 3.24.84 3.211.93c4.269 1.24 8.53 2.48 12.75 3.71 4.22 1.26 8.359 2.68 12.5 4 2.07.67 4.13 1.34 6.179 2.01 2.03.73 4.06 1.45 6.071 2.17 4.03 1.46 8.019 2.9 11.979 4.33 3.91 1.55 7.79 3.09 11.62 4.6 1.91.77 3.841 1.49 5.71 2.3 1.87.81 3.731 1.62 5.581 2.42 3.7 1.62 7.37 3.17 10.95 4.78 3.56 1.68 7.059 3.34 10.519 4.97 1.73.82 3.44 1.63 5.141 2.43l4.979 2.55c3.29 1.69 6.531 3.35 9.711 4.99 3.19 1.62 6.209 3.41 9.229 5.05 24.08 13.32 43.061 26.27 56.151 35.62 6.47 4.85 11.659 8.65 15.029 11.28 3.31 2.64 5.071 4.05 5.071 4.05 4.5 3.58 5.409 9.91 2.059 14.11-3.34 4.21-9.699 4.71-14.189 1.11a8.282 8.282 0 0 0-.291-.24l.031.02Z" fill="#1A1714"/><path d="M846.459 901.08s-.61-1.47-1.77-4.24c-1.17-2.72-2.88-6.71-5.06-11.79-4.44-10.17-10.94-24.64-19.27-41.77-8.31-17.14-18.58-36.86-30.33-57.59-5.92-10.33-12.14-20.96-18.79-31.56-3.26-5.34-6.74-10.6-10.14-15.94-3.52-5.26-6.981-10.6-10.63-15.8-14.36-20.99-29.9-41.17-45.41-59.31-15.59-18.07-31.2-34.04-45.34-46.92-14.15-12.87-26.74-22.73-35.82-29.26-4.47-3.37-8.16-5.75-10.62-7.46l-3.8-2.59s1.36.84 3.91 2.41c2.54 1.6 6.35 3.8 10.98 6.96 9.4 6.1 22.49 15.38 37.33 27.65 14.83 12.28 31.32 27.61 47.92 45.1 16.52 17.55 33.19 37.2 48.73 57.73 3.94 5.09 7.69 10.32 11.51 15.47 3.7 5.23 7.47 10.39 11.03 15.64 7.24 10.4 14.05 20.86 20.54 31.04 12.89 20.42 24.25 39.92 33.51 56.89 9.28 16.97 16.58 31.34 21.58 41.46 2.48 5.1 4.43 9.1 5.76 11.83 1.28 2.71 1.97 4.16 1.97 4.16 1.75 3.68-.81 8.49-5.69 10.73-4.88 2.25-10.25 1.09-11.99-2.59-.03-.07-.07-.17-.11-.24v-.01ZM1007.17 1065.99c2.03-.82 4.1-1.43 6.17-1.76 16.01-2.59 31.06-8.89 46.57-13.42 18.58-5.43 38.09-6.65 57.26-8.95 26.93-4.61 53.52-10.93 80.08-17.34 7.54-3.59 15.07-7.2 22.57-10.86 24.96-12.17 48.62-26.95 73.73-38.7 26.16-12.24 52.9-21.51 80.98-28.16 8.98-2.13 18.02-4.02 27.08-5.78 7.71-2.53 15.49-4.76 23.34-6.63 5.44-1.3 10.98-2.3 16.6-3.12-1.5-10.76.39-22.17 3.9-32.59a45.77 45.77 0 0 1-.97-4.29c-4.22-3.42-7.47-8.08-9.01-13.27-4.14-2.46-7.81-5.57-11.69-9-7.82-6.94-7.73-21.23 0-28.19 3.63-3.26 7.27-7.22 11.48-9.69 5.19-3.04 11.22-3.87 16.8-5.81 7.7-2.68 15.23-6.11 23.02-8.5 7.46-2.29 14.68-3.52 22.34-4.69 4.05-1.59 8.14-3.08 12.29-4.46 5.53-2.81 11.17-5.49 16.88-8.14 4.19-2.56 8.46-4.95 12.81-7.15 23.84-12.08 52.33-22.95 79.3-15.08a41.091 41.091 0 0 1 14.28 7.45c2.78-.19 5.57-.33 8.35-.47 5.01-1.12 10.02-2.22 15.04-3.28 7.4-1.57 15.18-2.5 22.26-5.21 2.18-.84 4.34-1.72 6.5-2.61 48.5 52.73 108.05 92.88 169.28 129.9 10.68.94 21.27 5.42 30.2 12.79.22.18.41.34.59.48 5.77 4.16 11.76 8.25 16.9 13.21a63.96 63.96 0 0 1 3.77 3.99c1.3.76 2.6 1.53 3.91 2.29-.41.31-.82.65-1.24.98 12.98 17.2 14.76 39.08 5.5 59.36-12.59 27.58-47.08 35.54-73.99 40.13-26.34 4.5-52.49 8.43-79.13 10.68-8.6.73-17.18 1.56-25.76 2.45-.68.56-.85.79-.1.01l-.56.06c-3.49 2.77-7.43 4.78-11.81 6.01-10.3 1.14-11.85 1.46-4.62.96l-2.25.67c-1.48.44-2.96.88-4.44 1.33-8.97 2.73-17.26 5.58-26.8 6-3.06.13-6.13.08-9.19.26-1.02.06-2.71.28-3.87.43-8.23 1.62-16.35 3.64-24.47 5.72-32.36 8.3-63.38 7.84-93.89 5.53-16.8.72-33.73 0-50.56.02-15.23.01-26.26 4.07-38.81 12.49-10.29 6.9-21.73 12.88-34.21 13.82-8.09 1.63-15.9.83-24.99-2.43-4.12-1.48-8.38-2.69-12.71-3.65-12.92 4.3-27.15 5.62-40.24 6.3-23.81 1.24-47.71-.98-71.44-2.8-64.67-4.97-129.43-7.43-193.31-19.61-7.54-1.44-9.79-7.95-8.26-13.71-23.36-.21-47.44-2.53-71.46-3.97ZM725.909 1217.77l-54.79-10.15c-16.32-2.89-35.29-6.06-55.65-8-20.34-1.91-42.14-2.6-63.68-.19-10.77 1.18-21.46 3.07-31.82 5.7-2.59.65-5.14 1.41-7.7 2.11-2.55.8-5.08 1.6-7.61 2.4-5.11 1.66-10.16 3.3-15.13 4.91-19.62 6.56-37.77 13.63-53.04 20.22-1.92.82-3.79 1.62-5.62 2.41-1.83.8-3.59 1.63-5.32 2.41-3.46 1.58-6.74 3.07-9.82 4.48-6.09 2.97-11.43 5.51-15.79 7.68l-13.63 6.98 13.05-8.04c4.18-2.52 9.31-5.48 15.17-8.93l9.47-5.26c1.67-.92 3.37-1.89 5.14-2.84 1.78-.93 3.59-1.88 5.45-2.86 14.84-7.84 32.44-16.36 51.86-24.61 4.83-2 9.73-4.03 14.7-6.08 2.53-1.02 5.08-2.05 7.64-3.09 2.62-.94 5.23-1.95 7.9-2.85 10.65-3.63 21.76-6.51 33.01-8.65 22.52-4.33 45.5-5.42 66.81-5.1 21.34.34 41.07 2.06 57.83 3.69l55.39 5.8c3.53.33 5.58 6.87 4.59 14.57-.99 7.71-4.66 13.68-8.19 13.34-.07 0-.16-.02-.23-.03l.01-.02Z" fill="#1A1714"/><path d="M1965.7 916.16s-1.35-.33-3.87-.96c-2.51-.65-6.2-1.6-10.89-2.81-2.33-.59-4.91-1.25-7.72-1.96-2.81-.7-5.87-1.4-9.1-2.23-3.23-.84-6.71-1.55-10.34-2.39-3.62-.88-7.47-1.62-11.45-2.52-1-.21-2-.42-3.02-.64-1.02-.19-2.05-.38-3.09-.57-2.08-.39-4.2-.78-6.35-1.19-2.15-.41-4.35-.72-6.57-1.11-2.22-.36-4.46-.82-6.76-1.12-9.15-1.44-18.83-2.31-28.78-3.19-9.97-.76-20.27-.67-30.67-.47-10.41.25-20.93 1.37-31.32 3.12-10.41 1.63-20.75 3.87-30.77 6.74-9.98 2.97-19.85 5.99-29.13 9.77-9.25 3.81-18.25 7.53-26.56 11.63-2.07 1.04-4.15 1.99-6.16 3.02s-3.99 2.04-5.94 3.04c-3.94 1.92-7.62 4.02-11.24 5.91-.9.49-1.79.97-2.66 1.44-.87.5-1.73.99-2.57 1.47-1.71.96-3.37 1.9-5 2.81-3.29 1.78-6.32 3.62-9.21 5.29-5.77 3.36-10.76 6.41-14.93 8.84-4.1 2.53-7.37 4.48-9.59 5.82-2.25 1.32-3.44 2.03-3.44 2.03s.95-1.01 2.74-2.9c1.83-1.84 4.41-4.68 7.94-8.01 3.55-3.3 7.74-7.5 12.95-11.83 2.57-2.22 5.26-4.63 8.26-6.99 1.49-1.19 3.02-2.41 4.58-3.66.79-.62 1.58-1.25 2.39-1.88.83-.61 1.66-1.22 2.5-1.84 3.38-2.47 6.83-5.16 10.61-7.66l5.73-3.87c1.95-1.3 4-2.51 6.06-3.77 8.18-5.13 17.12-10.14 26.74-14.63 9.6-4.51 19.81-8.73 30.52-12.11 10.66-3.52 21.87-6 33.16-7.87 11.32-1.67 22.75-2.64 34-2.69 11.25-.14 22.27.91 32.81 2.23 10.54 1.41 20.57 3.58 29.93 6.01 2.36.53 4.63 1.25 6.89 1.87 2.25.66 4.48 1.27 6.63 1.98 2.15.72 4.26 1.42 6.33 2.12 1.03.35 2.06.7 3.07 1.04 1 .37 2 .74 2.98 1.1 3.94 1.44 7.71 2.8 11.21 4.31 3.51 1.48 6.86 2.83 9.93 4.28 3.1 1.39 5.98 2.69 8.62 3.98 2.62 1.33 5.02 2.55 7.19 3.65 4.37 2.12 7.61 4.13 9.91 5.35 2.25 1.3 3.46 1.99 3.46 1.99l-.01.03ZM879.808 1228.88l-2.32 1.52c-1.5.99-3.55 2.43-6.25 4.27-5.35 3.78-12.99 9.29-21.61 16.51-1.08.91-2.18 1.83-3.3 2.77-1.09.97-2.21 1.96-3.34 2.96-2.3 1.98-4.53 4.17-6.9 6.36-4.6 4.5-9.4 9.32-13.99 14.64-9.29 10.54-18.1 22.78-25.38 35.96-3.6 6.61-6.9 13.4-9.72 20.3-2.76 6.91-5.23 13.84-7.16 20.71-3.95 13.7-6.14 26.96-7.37 38.39-1.2 11.45-1.45 21.08-1.48 27.82-.03 3.37.08 6.02.09 7.83.03 1.81.05 2.77.05 2.77s-.09-.96-.27-2.76c-.15-1.8-.47-4.44-.71-7.81-.5-6.74-1.02-16.41-.72-28.05.33-11.63 1.48-25.26 4.42-39.65 1.43-7.2 3.4-14.55 5.7-21.95 2.36-7.38 5.23-14.73 8.46-21.95 6.52-14.4 14.8-28.06 23.72-39.96 4.41-6.01 9.07-11.49 13.56-16.63 2.3-2.51 4.5-5.01 6.75-7.29 1.11-1.16 2.21-2.29 3.28-3.41 1.1-1.09 2.18-2.15 3.24-3.2 8.5-8.34 16.04-14.75 21.39-19.19 2.71-2.19 4.88-3.97 6.31-5.08l2.19-1.7c1.93-1.52 6.08.8 9.23 5.14 3.16 4.34 4.16 9.09 2.22 10.59-.04.03-.09.06-.13.09h.04Z" fill="#1A1714"/><path d="M574.939 1185.88c4.52-19.77 25.98-34.74 46.27-29.05 5.28 1.48 10.58 2.65 15.98 3.58 2.66.46 5.35.8 8.03 1.12.4.02.89.05 1.48.09 12.6.83 25.27.45 37.86-.29 5.64-.33 11.26-.83 16.88-1.36 2.7-.26 5.39-.55 8.09-.85.44-.04.82-.08 1.16-.12.37-.08.78-.16 1.28-.26 6.15-1.22 12.21-2.9 18.2-4.72 3-.92 5.95-1.98 8.9-3.05 1.18-.42 8.32-3.48 8.43-3.4 8.83-4.45 17.01-10.01 25.57-14.95 14.31-8.26 29.4-13.61 45.98-14.53 29.3-1.64 53.05 15.31 77.44 28.53 2.52 1.37 5.12 2.58 7.71 3.82.41.19.75.36 1.06.51.13.04.25.09.4.13 5.79 1.97 11.73 3.49 17.6 5.13 12.91 3.6 25.5 7.19 38.82 9.01.51.07.92.13 1.29.18 2.88.21 5.77.3 8.66.39 5.77.17 11.54 0 17.31-.26 12.901-.59 25.731-2.27 38.491-4.15 12.83-1.89 25.58-4.26 38.4-6.16 2.45-.36 4.9-.7 7.35-1.04 19.06-8.18 38.26-15.97 58.14-22.04 2.81-.86 5.66-1.37 8.49-1.57 20.11-10.13 39.66-21.38 58.11-34.29 4.49-3.14 8.86-6.45 13.18-9.81.24-.19.46-.36.66-.52.03-.03.06-.04.09-.07 2.05-1.73 4.05-3.53 6.05-5.33 8.78-7.89 16.34-16.85 24.53-25.32 16.93-17.51 36.77-31.91 54.33-48.74 17.18-16.47 30.73-36.36 47.57-53.25 18.71-18.76 39.8-34.86 62.07-49.11 43.94-28.11 90.75-54.55 142.58-64.28 33.36-6.26 66.77-12.04 100.25-17.63 3.33-.56 6.66-1.12 9.99-1.69.94-.16 6.86-1.2 8.88-1.54 6.99-1.26 13.97-2.57 20.94-3.94 14.78-2.9 29.48-6.17 44.05-9.96 35.07-9.13 66.99-27.98 102.46-36.49 15.53-3.73 34.11-7.52 49.56-1.4 25.04 9.92 16.94 33.11.04 47.96-10.37 9.12-22.25 16.47-34.03 23.61-7.16 4.34-14.67 7.87-22.28 11.34 8.79-4-.27.84-1.63 1.59-3.54 1.94-7.2 3.68-10.86 5.39-52.47 24.59-110.33 33.42-167.03 42.89-13.37 2.23-26.75 4.42-40.12 6.68-2.29.39-4.58.79-6.87 1.19.61-.1-5.98 1.07-6.73 1.2-7.84 1.42-15.66 2.94-23.47 4.52-11.94 2.41-23.62 5.31-35.19 9.15-5.66 1.88-11.23 4.05-16.75 6.29-2.73 1.11-5.43 2.29-8.14 3.48-1.53.74-3.05 1.47-4.57 2.22-22.61 11.1-44 24.58-65.16 38.16-5.06 3.25-10.05 6.56-14.93 10.09-2.33 1.69-4.61 3.45-6.9 5.21-.49.38-1.68 1.35-2.74 2.22-8.75 7.43-16.99 15.45-24.89 23.77-9.93 10.46-18.67 21.84-27.98 32.82-9.93 11.71-21.74 21.76-33.38 31.7-11.16 9.54-22.36 19-32.72 29.42-10.23 10.3-19.53 21.13-30.57 30.64-1.4 1.2-2.82 2.35-4.23 3.52-3.12 5.68-7.6 10.81-13.13 14.94-5.11 3.82-10.23 7.61-15.4 11.34a308.28 308.28 0 0 1-20.81 14.64c-7.1 4.58-14.37 8.88-21.78 12.92-8.23 4.55-16.53 8.9-24.91 13.05a624.64 624.64 0 0 1-25.32 11.87c-31.19 13.37-63.54 24.9-96.5 33.88a627.97 627.97 0 0 1-24.79 6.22c-17.81 3.78-36.321 7.22-55.021 9.5-9.35 1.14-18.75 1.99-28 2.38-53.77 5.09-98.8-28.73-147.69-38.16-15.69-2.6-32.35.89-49.56 4.94-52.94 16.2-118.96 9.43-161.44-24.99-5.32-8.1-7.53-18.17-5.07-28.92l-.02.01Z" fill="#1A1714"/><path d="M661.019 1226.71c16.36-.89 31.63-3.73 45.38-8.45 22.85-7.84 45.16-20.64 68.2-39.11 19.04-15.27 34.02-28.38 47.15-41.25l3.57-3.5 3.01 3.99c2.66 3.53 5.57 7 8.64 10.28 42.04 45.17 106.72 50.24 141.53 49.24 2.9-.08 5.8-.2 8.7-.36 48.371-2.64 97.481-15.89 142.011-38.32 64.41-32.45 118.05-81.91 169.92-129.75 23.2-21.38 47.17-43.5 71.86-63.86 22.64-18.69 43.21-35.27 65.74-48.93 27.63-16.73 58.1-30.15 90.58-39.88 53.27-15.96 108.99-23.33 162.86-30.47 8.57-1.13 17.14-2.27 25.71-3.44 57.86-7.91 114.16-16.68 166.92-36.88 54.33-20.82 88.83-49.24 102.54-84.46 8.35-21.43 8.42-45.22.23-70.69-1.88-5.81-4.19-11.74-6.87-17.62l-.29-.64v-.12c-.07-.08-.26-.41-.26-.41l-.08-.16c-.53-1.14-1.07-2.25-1.61-3.37l-3.59-4.29-.18-.29c-1.31-2.17-2.57-4.37-3.83-6.58-3.17-5.53-6.44-11.24-10.39-16.22-6.49-8.16-14.31-16.59-23.92-25.76-16.91-16.15-36-31.81-56.73-46.55-27.3-19.45-54.64-37.22-81.28-52.82l-3.49-2.05 1.76-3.65c9.39-19.47 16.49-40.78 22.33-67.06 5.62-25.31 3.12-51 .69-75.84-.63-6.45-1.28-13.12-1.78-19.7-1.04-13.36-4.19-26.96-7.23-40.12-1.06-4.55-2.11-9.09-3.08-13.64-4.31-20.15-13.18-39.21-21.76-57.65-1.66-3.57-3.32-7.13-4.95-10.71-2.41-5.29-4.79-10.6-7.17-15.92-4.03-8.99-8.19-18.29-12.44-27.3-5.87-12.42-16.15-25.92-28.94-38.01-10.77-10.27-20.32-19.86-29.2-29.35-7.53-8.03-16.67-15.04-28.75-22.06-28.41-16.56-59.67-28.45-89.9-39.94l-7.1-2.7c-2.37-.91-4.84-1.6-7.46-2.34-2.61-.74-5.31-1.5-7.97-2.5-1.21-.45-2.29-.65-3.33-.59-2.79.15-5.33 2.21-8.28 4.6-.58.47-1.17.94-1.76 1.41-2.76 2.16-5.11 3.23-7.37 3.35-.36.02-.72.01-1.06-.02-6.53-.5-13.18-1.14-19.61-1.75-10.44-1-21.24-2.04-31.82-2.51-6.73-.31-13.52-.03-19.27.28-2.16.12-4.31.25-6.46.38-2.17.13-4.34.27-6.51.38-1.2.07-2.39.13-3.58.18l-2.95.12c-1.98.08-3.96.16-5.94.27-3.8.21-6.85.48-9.57.86-2.66.38-5.34 1.14-8.17 1.95-2.02.57-4.1 1.17-6.25 1.64-2.09.44-4.14.71-6.13.97-3.11.41-6.04.8-8.62 1.74a764.672 764.672 0 0 0-39.16 15.59c-17.92 7.7-33.39 19.42-47.71 30.76-4.29 3.39-9.05 6.01-13.66 8.55-4.75 2.62-9.24 5.08-13.09 8.26-10.04 8.28-19.44 17.91-28.52 27.22l-2.81 2.87c-9.66 9.84-18.17 19.05-26.01 28.16l-2.15 2.49-2.99-1.36c-7.05-3.2-14.73-6.39-24.14-10.05-18.48-7.17-39.92-14.73-60.6-13.6-2.22.12-4.43.35-6.55.67-43.74 6.63-65.55 49.71-82.61 95.28-11.03 29.48-15.13 60.41-17.92 89.44-.99 10.35-1.91 20.69-2.84 31.04-1.84 20.56-3.75 41.82-6.1 62.73-3.86 34.35-9.19 68.12-15.83 100.38-1.03 5.02-1.92 10.12-2.86 15.53-1.17 6.7-2.37 13.62-3.88 20.43l-.52 2.37-2.28.82c-17.451 6.26-35.041 13.51-52.251 21.55-14.55 6.78-27.53 13.08-39.12 21.44-1.31.94-2.59 1.94-3.93 3.04l-1.96 1.62-2.37-.89c-20.92-7.82-43.95-10.92-70.39-9.47-29.94 1.63-60.3 8.83-89.67 15.78-4.35 1.03-8.69 2.06-13.01 3.06l-4.21.98c-26.18 6.12-53.25 12.46-80.67 13.95-6.96.38-13.82.44-20.38.17-15.55-.65-31.58-3.73-50.46-9.71-11.12-3.52-22.19-7.7-32.89-11.73-4.76-1.79-9.51-3.59-14.25-5.32-4.61-1.26-9.38-2.66-14.28-4.1-16.14-4.74-32.84-9.64-49.21-11.23-5.25-.51-10.26-.64-14.87-.39-5.46.3-10.63 1.15-15.37 2.52-9.96 2.9-18.28 8.15-25.43 16.04l1.47 2.91-2.37 2.37c-4.32 4.1-6.68 6.69-4.89 12.29l.26.81-.06.85c-.72 9.83-.5 20.04.66 31.23 1.36 12.6 3.75 25.14 7.1 37.28 3.46 12.43 7.91 24.47 13.24 35.76 8.47 20.08 21.1 39.04 36.59 55.01 7.8 8.02 16.29 15.24 25.21 21.45 23.57 18.2 51.22 26.91 80.13 25.34 9.32-.51 18.79-2.09 28.13-4.71 25.7-7.43 51.59-11.85 79.1-13.52l7.43-.45-3.21 6.72c-.31.64-.6 1.28-.83 1.88l-1.08 2.79c-1.22 3.15-2.48 6.41-3.55 9.61-2.71 8.05-5.28 16.64-7.84 26.28-5.9 22.29-10.02 40.42-12.96 57.06-2.22 12.5-3.92 25.43-5.55 37.92-3.05 23.24-6.2 47.28-12.91 70.25-7.25 24.83-19.71 47.67-40.42 74.05-2.08 2.65-4.19 5.3-6.32 7.97-13.44 16.86-27.33 34.3-35.19 54.03-5.78 14.52-12.32 35.7-2.33 52.03 7.11 11.66 20.12 20.51 38.68 26.31 24.02 7.53 51.02 10.92 76.03 9.56l.03-.02Z" fill="#fff"/><path d="M1031.83 532.39c2.26.59 4.51.9 6.76 1 8.78-12.23 29.58-18.99 41.94-22.35 18.5-5.03 38.48-9.71 56.98-2.7 7.57 2.87 10.35 9.42 9.78 16.1 1.5 1.07 2.98 2.17 4.44 3.35 15.6 12.65 27.02 30.71 37.54 47.55 5.88 9.43 13.81 17.53 20.41 26.46 4.54 6.13 7.65 12.67 9.92 19.56 1.47 1.92 2.93 3.83 4.34 5.79 4.44 6.17 7.48 13.49 7.09 21.19-.8 15.7-7.34 31.68-19.11 42.34-6.26 5.67-13.98 9.82-22.5 10.61-8.44.78-16.35-1.63-24.68-2.33-4.85-.4-9.14.05-13.74-1.96-3.35-1.47-6.5-3.14-9.54-5.18-6.98-4.68-12.35-10.55-17.41-17.2-8.16-10.72-13.34-23.5-20.01-35.13-6.28-10.95-14.64-21.04-22.17-31.15-12.03-16.15-27.8-40.33-48.41-47.48a42.72 42.72 0 0 1-7.7-1.82c-16.47-5.52-11.51-30 6.09-26.66l-.02.01Z" fill="#fff"/><path d="M710.6 1206.59c1.87-1.34 3.71-2.73 5.55-4.11.56-.42 4.98-3.94 5.04-3.95 6.8-5.68 13.18-11.86 19.17-18.39 7.6-8.29 10.01-11.67 15.29-20.43 9.64-15.98 14.6-30.6 15.82-49.23 1.59-24.49-4.84-48.45-9.86-72.19-2.69-12.7-5-25.52-6.26-38.44-1.34-13.65.03-27.12.97-40.74 1.91-27.91 2.69-56.07 6.51-83.8 1.94-14.1 5.03-24.91 9.4-34.68.61-1.37 2.45-7.67 3.29-10.84 1.57-5.91 3.03-11.51 5.41-17.19 1.34-3.21 2.9-7.68 5.45-10.13 3.26-3.14 2.25-.63 2.76-4.78.35-2.9 2.4-4.69 4.87-5.38 3.13 2.04 6.39 3.83 9.77 5.39 1.7 7.7 1.28 14.94 1.76 22.81.15 2.43.28 4.87.4 7.3 2.6-8.74 5.49-17.39 8.79-25.96 4.34 1.31 8.79 2.25 13.28 2.9 2.56 1.87 5.08 3.81 7.48 5.91 2.69 2.34 5.62 3.13 8.37 2.87-.06.34-.11.67-.17 1.01 2.51-.34 4.92-.64 7.01-1.04 4.72-.88 9.31-2.24 13.81-3.92 4.19-1.56 11.41-5.48 14.65-8.57 2.65-2.52 6.69.38 5.14 3.7-2.45 5.25-3.73 9.35-8.48 13.13-4.98 3.96-9.94 7.72-15.47 10.87-5.09 2.9-12.55 6.12-19.66 7.01-.98 7.75-1.9 15.51-2.97 23.26-2.99 21.8-4.8 40.98-5.95 62.08-1.98 36.13-4.9 72.17-2.09 108.36.62 8.04 1.62 16.05 2.89 24.01 0-.15.74 3.92.78 4.1.41 2.05.87 4.08 1.33 6.11 1.07 4.69 2.37 9.34 3.77 13.94 1.18 3.89 2.56 7.73 4.01 11.54.72 1.89 1.5 3.75 2.29 5.61.18.42.32.75.43 1.03.15.3.33.66.58 1.17 3.79 7.82 8.42 15.19 13.6 22.16.15.2 1.87 2.3 2.39 2.94 1.04 1.19 2.11 2.35 3.19 3.51 1.55 1.66 3.18 3.25 4.83 4.8.38.02.76.07 1.14.17 10.31 2.64 18.44 10.64 28.77 13.75 4.1 1.23 8.66 2.58 13.03 3.04 25.3-3.27 51.16-2.67 76.19-7.89 25.35-5.28 49.49-14.78 72.07-27.38 24-13.4 43.96-30.36 64.79-48.01 9.52-8.07 18.11-17.19 26.76-26.17 9.58-9.95 19.38-20.57 25.86-32.82 1.5-2.83 6.19-1.16 5.32 2-7.44 27.18-20.6 50.21-38.99 71.49-.67.77-1.34 1.54-2.01 2.3 53.62-45.86 101.75-101.32 157.37-145.78 27.87-22.28 58.85-39.83 91.5-53.8 15.01-11.7 31.29-22 48.33-30.39 19.44-9.56 39.98-16.3 60.07-24.29 22-8.75 44.09-17.92 66.87-24.44 2.14-.61 3.16 2.63 1.04 3.29-21.65 6.71-42.1 15.58-61.55 27.21-2.06 1.23-4.1 2.49-6.13 3.76 3.75-1.12 7.52-2.22 11.3-3.28 24.15-6.79 48.46-14.13 73.16-18.61 26.42-4.79 53.07-6.81 79.88-7.82 50.6-1.9 102.2-.3 151.36-14.24 21.29-6.03 41.48-15.59 62.59-22.31 8.89-2.83 17.81-5.57 26.64-8.56 7.95-2.69 19.83-7.42 24-9.47 16.96-8.38 28.45-18 37.25-32.34 1.56-2.54 2.95-5.16 4.24-7.83 2.7-9.91 5.09-19.78 6.01-30.37 1.56-18.05.42-34.23-6.21-51.27-1.03-2.64 3.01-3.77 4.12-1.29 5.67 12.69 10.45 26.93 12.75 41.41.65-1.79 1.29-3.59 1.91-5.39.05 5.72-.2 11.44-.63 17.17.6 10.59-.35 21.11-3.48 31.05-1.31 10.01-2.62 20.08-3.38 30.23-.62 1.1-1.25 2.18-1.93 3.24-.81 1.08-1.64 2.15-2.5 3.2-1.48 1.75-2.96 3.5-4.54 5.15-2.11 2.2-4.26 4.38-6.53 6.43-.17.15-.32.29-.46.42-.19.15-.4.32-.64.51-3.62 2.9-7.29 5.71-11.06 8.4-7.68 5.47-15.43 10.73-23.08 16.1-2.72 1.45-5.44 2.89-8.2 4.28-.8.41-7.78 3.82-7.06 3.51-1.92.91-3.83 1.82-5.76 2.71-24.79 11.33-50.46 20.75-76.93 27.35-6.79 1.69-13.62 3.26-20.48 4.65-1.5.26-7.08 1.31-7.83 1.43-2.92.48-5.84.96-8.77 1.4a644.668 644.668 0 0 1-45.56 5.02c-32.15 2.41-64.42 3.72-96.23 9.31-5.34.94-10.36 2.78-14.66 5.45-24.54 1.67-48.67 5.86-72.51 11.49-3.57-1.95-7.49-3.21-11.52-3.62-.06 0-.12 0-.18-.01-.44-.04-.88-.07-1.32-.1h-.28c-.41-.01-.82-.02-1.24-.02h-.37c-.38 0-.77.02-1.16.05-.16 0-.32.03-.48.04-.35.03-.7.06-1.05.1-.2.03-.4.06-.59.09-.31.05-.63.09-.94.15-.24.04-.47.1-.71.15-.28.06-.55.11-.83.18-.29.07-.59.16-.88.25-.22.07-.44.12-.65.19-.51.16-1.02.34-1.53.53-14.27 5.48-29.24 9.08-43.21 15.31-.64.29-1.26.59-1.88.9-.14.07-.27.14-.4.21-.5.26-.98.52-1.46.79-.11.06-.22.13-.33.2-.52.3-1.03.62-1.53.94-.05.03-.1.06-.15.1-2.93 1.93-5.54 4.21-7.73 6.76-.01 0-.03 0-.04.01-2.69 3.15-4.74 6.71-5.95 10.6-14.99 4.01-29.83 8.54-44.49 13.64 1.46 3.87 1.22 8.3-1.75 12.64l-.33.48c-27.66 7.45-55.04 21.11-64.25 49.25-.36.23-.72.46-1.08.7a229.216 229.216 0 0 0-22.5 16.93c-2.97 3.26-5.95 6.52-9.02 9.7-1.72 1.79-3.47 3.55-5.29 5.24-.5.46-3.69 3.26-3.78 3.4-.95.79-1.91 1.56-2.87 2.33-5.8 6.45-14.07 11.65-20.46 17.58-9.67 8.98-19.31 17.68-29.71 25.65-.64.69-1.29 1.37-1.91 2.08-1.43 1.03-2.87 2.05-4.3 3.08-3.62 2.62-7.2 5.31-10.76 8.02-5.28 4.8-10.17 9.97-15.51 14.92-8.58 7.96-17.23 16.23-26.77 23.03-8.1 5.77-19.94 13.48-30.31 13.78-5.02 3.74-10.2 7.22-15.6 10.3-15.23 8.68-31.68 16.16-47.48 24.61 3.19 2.01 5.71 4.85 7.17 8.07-13 4.36-26.1 8.48-39.29 12.26-3.09 2.43-6.1 4.96-8.98 7.65-3.99 3.74-9.58 1.8-11.32-2.16a691.64 691.64 0 0 1-15.57 3.77c-2.28.52-4.57 1.01-6.85 1.51-3.09.85-6.19 1.68-9.34 2.49-18.45 4.73-36.71 7.01-55.43 6.47-3.79.22-7.58.39-11.38.48-7.38.18-14.76.19-22.14-.14-1.58-.07-9.38-.69-8.28-.54-2.51-.25-5.01-.52-7.51-.86-13.02-1.78-25.98-4.45-38.48-8.57-.91-.39-6.17-2.35-7.36-2.86-3.21-1.39-6.4-2.82-9.52-4.41-3.12-1.59-6.22-3.21-9.23-5-1.31-.78-7.63-4.97-6.69-4.2-4.98-3.64-9.8-7.51-14.28-11.75-2.67-2.53-5.3-5.09-7.79-7.8-.52-.57-2.22-2.6-2.82-3.29-.3-.38-.62-.76-.92-1.14-1.48-1.86-3.1-3.55-4.84-5.08-.16-.16-.32-.34-.49-.49-.45-.41-.94-.76-1.44-1.08-.39-.3-.79-.58-1.19-.86-.04.04-.08.09-.12.13-4.53-2.13-10.2-1.17-13.67 2.71a35.648 35.648 0 0 0-3.41 4.43c-.63-.06-1.2-.16-1.77-.28a159.13 159.13 0 0 1-4.39 12.9c-28.6 21.25-59.52 39.67-93.31 51.26-2.19.75-4.38 1.46-6.58 2.15a493.5 493.5 0 0 0 5.48-3.85h-.06Z" fill="#C8B0C3"/><path d="M1743.39 556.39c-5.13 7.61-10.76 14.99-17.29 21.7-2.32 2.34-4.7 4.64-7.11 6.89-10.89 10.17-22.62 19.58-33.95 29.03 1.04-.01 2.06-.03 3.01-.08 14.12-.67 28.34-.24 42.14 3.04 2.88.68 18.2 3.2 14.48 8.29-1.95 2.67-10.66.11-13.86.74-7.84 1.55-15.07.94-22.92 1.89-8.53 1.03-16.98 3.85-25.44 5.43-8.98 1.68-18.7 5.54-28.08 5.67-10.91 8.34-22.19 16.14-34.46 22.98-21.88 12.19-45.25 21.11-69.91 25.5-18.74 3.33-37.82 5.74-56.98 6.9 1.33 1.55 1.51 4.15-.66 5.35-7.07 3.89-14.98 5.99-22.98 6.79-9.33.94-18.51-2.92-27.73-3.23-8.52-.29-17.68-1.73-26.17-2.86-9.8-1.32-19.45-3.18-29.07-5.46-38.54-9.14-76.92-25.56-110.96-45.64-17.89-10.55-34.54-22.59-50.05-35.98a34.17 34.17 0 0 0-4.05-10.54c-9.42-15.98-22.15-29.39-35.58-42.22-1.03-1.06-2.06-2.12-3.09-3.17-5.96-6.08-11.99-12.11-17.77-18.36-1.55-1.68-3.1-3.37-4.63-5.08-.29-.36-.73-.88-1.34-1.6-2.3-2.85-4.53-5.75-6.7-8.71a34.512 34.512 0 0 0-4.35-4.88c-.59-2.58-1.48-5.06-2.68-7.35.05-1.04.05-2.09-.02-3.15-.17-2.62-.43-5.23-.72-7.83 4.6-.9 9.09-2.3 13.45-4.25 2.35 1.52 4.95 3.21 4.15 2.56 5.58 4.12 10.97 8.51 16.06 13.24 1.04.97 2.04 1.98 3.06 2.95 7.48 9.96 15.06 19.86 22.98 29.48 12.93 15.69 26.84 30.14 41.95 43.25 14.58 3.6 29.67 5.91 44.24 9.26 2.98.68 5.54.28 7.63-.81 1.97 1.46 3.93 2.94 5.91 4.38 18.72 13.63 38.42 26.09 59.16 36.43 39.51 19.7 82.2 23.25 125.5 21.75 3.93-.14 7.87-.32 11.82-.53 14.52-1.88 28.93-4.7 43.15-8.22 3.55-.88 7.08-1.81 10.58-2.81 19.85-6.35 39.89-12.8 58.96-21.24 3.81-1.7 7.58-3.47 11.3-5.34 16.98-9.25 33.11-19.33 48.71-30.01 3.12-2.14 6.22-4.3 9.3-6.48 2.57-1.83 5.14-3.67 7.72-5.53 23.01-15.88 44.55-32.6 60.03-56.72 2.21-3.17 4.44-6.36 6.75-9.5 6.95-9.44 14.66-18.49 24.62-25.95-5.58 24.49-23.68 41.03-33.14 62.35-1.62 2.6-3.28 5.17-4.99 7.7l.02-.02Zm-260.67 138.48c-2.22.08-4.44.15-6.66.2 2.24.12 4.46.07 6.66-.2ZM1763.08 408.28c.36-.72.56-1.14 0 0Z" fill="#C8B0C3"/><path d="M1137.99 444.06c1.17-7.95 3.13-15.09 11.27-18.55.14-.2.31-.39.45-.6.71-1.07 1.41-2.36 2.27-3.46-1.06-10.97-3.06-21.92-3.46-32.95-.45-11.89-.16-23.88 1.04-35.7 2.37-23.8 3.94-47.83 8.86-71.11 5.8-27.39 16.74-53.23 30.2-77.98.4-.75.8-1.49 1.2-2.26 6.6-15.54 14.73-30.49 23.55-44.9.99-1.59 2.39-2.85 3.99-3.75.43-.64.88-1.28 1.33-1.9 3.18-4.59 6.58-9.08 10.24-13.37.06-.07.12-.16.21-.23 8.39-9.75 17.17-19.18 26.21-28.37 10.24-10.47 20.42-21.13 31.67-30.4 8.1-6.68 18.57-10.35 26.81-16.87 15.25-12.08 30.73-23.63 48.7-31.35a759.8 759.8 0 0 1 39.4-15.69c4.83-1.76 10.23-1.81 15.31-2.88 4.97-1.08 9.75-2.93 14.74-3.64 6.22-.87 12.56-1.02 18.87-1.3 12.06-.55 24.18-1.78 36.21-1.23 17.23.78 34.4 2.96 51.61 4.28 1.72.15 3.82-1.22 5.36-2.42 5.21-4.06 9.88-8.98 17.62-6.06 5.05 1.9 10.42 2.92 15.45 4.85 33.28 12.69 66.73 24.93 97.64 42.95 10.89 6.33 21.04 13.57 29.75 22.85 9.38 10.02 19.1 19.7 29.02 29.16 11.49 10.86 23.07 24.89 29.9 39.33 6.73 14.29 13.07 28.86 19.63 43.27 10.29 22.58 21.76 44.76 27.01 69.26 3.87 18.05 8.98 36.07 10.39 54.35 2.46 32.15 8.25 64.2 1 96.83-5.26 23.65-12.24 46.39-22.66 68.01-.53 1.11-1.06 2.19-1.62 3.29-.08.16-.16.32-.24.47-.64 1.24-1.27 2.51-1.91 3.75-.34.68-.69 1.38-1.05 2.05-8.24 16.05-17.03 31.87-26.13 47.46-6.63 11.37-13.21 23.31-22.17 32.7-17.25 18.1-35.68 35.13-54.49 51.6-8.7 7.64-17.79 14.66-27.19 21.21-11.52 8.01-23.51 15.26-35.87 21.89-9.5 5.13-19.19 9.88-29.08 14.33-5.13 2.32-10.38 4.34-15.7 6.24-7.24 2.59-14.63 4.95-22.05 7.44-2.7.87-5.39 1.79-8.09 2.75.59.39 1.1.73 1.55 1.04-16.23 6.58-33.6 7.13-50.23 12.19-16.02 4.87-33.77 3.58-50.16 3.24-21.81-.46-42.83-6.57-63.45-13.65-2.06-.71-4.12-1.42-6.17-2.14-2.39-.58-4.74-1.23-7.03-1.96-15.64-4.19-29.98-13.77-43.71-20.94-1.67-1.05-3.34-2.1-5.03-3.12-5.04-3.06-10.19-5.87-15.67-7.99a302.86 302.86 0 0 1-6.43-3.51c-17.01-9.54-32.91-20.7-48.95-32.56-7.4-5.48-15.53-10.36-23.17-15.77-9.61-9.85-18.64-20.3-27.86-30.56-1.83-2.58-3.84-5.06-6.11-7.31-.69-.99-1.38-1.99-2.11-2.94-.26-.75-.61-1.53-1.11-2.29-5.03-7.59-11.3-14.15-17.32-20.92-6.27-5.83-12.53-11.82-17.7-18.79-2.8-3.78-5.75-7.91-8.62-12.21-2.83-4.26-5.62-8.68-8.12-13.16-3.14-5.54-5.88-11.15-7.89-16.6-4.3-11.57-1.79-20.21.13-33.45l-.04.05Zm254.13 163.53c-3.81.76-7.64 1.27-11.47 1.7-7.95.9-15.89 1.5-23.83 1.78-18.16.66-36.36-1.07-54.1-4.04-13.06-2.17-25.82-5.32-38.32-9.29 2.5 1.89 4.99 3.75 7.51 5.59 11.13 8.18 22.25 16.41 34 23.54 16.64 10.1 33.68 19.61 50.92 28.67 39.63 20.82 80.61 35.2 126.16 29.46 13.75-1.74 27.74-1.91 41.31-4.41 13.21-2.43 26.17-6.52 38.92-10.76 6.21-2.05 12.3-4.54 18.31-7.17.04-.02.09-.05.13-.05 3.63-1.61 7.23-3.25 10.81-4.92 1.46-.67 2.89-1.41 4.3-2.17 5.71-2.99 11.21-6.46 17-9.3 22.41-11.02 42.4-25.65 62.02-40.89 6.34-4.94 13.6-8.83 19.39-14.26 11.46-10.71 22.72-21.74 33.02-33.49 11.3-12.88 22.01-26.38 31.83-40.39 6.38-9.07 10.78-19.55 16.04-29.4 6.44-12.09 13.08-24.07 19.14-36.33 3.01-6.07 5.53-12.54 7.07-19.11 3.64-15.36 6.2-30.97 9.75-46.35 5.19-22.37 1.06-44.56-.66-66.83-1.93-24.94-9.12-48.7-16.24-72.44-8.6-28.8-20.04-56.41-35.92-82.11-1.93-3.08-3.66-6.28-5.37-9.51-1.39-1.66-2.78-3.32-4.18-4.96-3.59-4.2-7.37-8.21-11.23-12.15-3.61-3.67-4.7-4.82-8.93-7.78-.66-.47-1.34-.91-2.05-1.34-.34-.18-.98-.74-1.33-1.05-.14-.1-.28-.18-.41-.26-.2-.12-.34-.22-.43-.28-.04-.02-.13-.04-.22-.1-.92-.37-1.73-.65-2.5-1.12-.02 0-.04.03-.04.03.36 1.03.73 2.07 1.09 3.13 3.22 9.36 5.56 18.95 7.22 28.79.75 4.53 1.14 9.21 1.06 13.83-.03 2.22-.19 4.56-.24 6.87-.4 0-.77 0-1.16.04-.45-1.47-.97-2.91-1.45-4.32-1.36-4.03-2.95-8.06-4.52-12.01-3.23-8.02-6.34-15.98-10-23.82-7.52-16.2-17.1-31.46-27.42-45.9-2.71-3.78-5.49-7.52-8.3-11.19-.53-.52-1.07-1.04-1.63-1.58-25.51-24.98-56.86-41.7-88.73-57.19-7.31-3.56-34.42-12.21-31.54 5.43 1.25 7.67 11.21 13.01 16.46 17.74 18.86 16.99 36.96 37.34 51.62 58.14 9.2 13.06 18.22 26.25 27.03 39.62 4.62 10.51 9.67 20.83 13.7 31.62.03.22.07.43.1.65 2.25 14.6 4.45 29.23 6.46 43.86-.26.43-.36.96-.22 1.55 1.57 6.55 1.44 13.44 1.41 20.18-.04 6.97.25 13.87.43 20.83.01.61.04 1.23.06 1.84 1.1 39.49-9.12 79.69-24.93 115.89-2.52 5.74-5.22 11.43-8.1 17.01 6.96-1.72 13.92.65 19.92 3.92 7.59 4.18 14.09 10.53 19.74 17.03.49.57.97 1.16 1.46 1.74 1.85 1.28 3.58 2.68 5.17 4.16 8.1 7.56 11.39 18.67 11.6 29.76.51 24.67-13.76 50.24-29.57 68.61-8.66 10.05-19.07 19.72-31.44 24.63-.77.31-1.52.41-2.22.36 0 0 0 .02-.02.03-18.58 16.31-44.23-5.24-57.52-17.28-9.27-8.37-13.36-18.87-11.66-31.73.5-3.76 1.41-7.57 2.61-11.35-5.89 5.95-12.93 10.61-19.51 15.83l-2.77 2.26c-.76.59-1.56.9-2.34.94-.21.23-.42.46-.62.69-2.66 2.78-5.34 5.24-8.54 7.37-.3.19-.6.38-.9.58-3.04 2.52-6.24 4.89-9.68 6.99-.56.34-1.09.52-1.6.57-.1.1-.23.17-.34.26-.46.31-.91.64-1.35.95-4.23 3-8.62 5.79-13.03 8.53-2.89 2.55-6.37 4.15-9.65 6.11-7.87 6.21-17.3 9.54-26.91 11.82-20.52 4.86-41.39 8.61-62.28 11.53-13.55 1.9-27.53 2.87-41.13 1.76-34.51-2.75-67.98-10.75-99.72-25.12-17.08-7.7-30.39-21-45.42-31.76-9.81-7.02-16.53-16.59-24.09-25.54-5.75-6.81-11.61-13.56-17.43-20.32-.49-.83-.95-1.66-1.41-2.52-4.04-3.62-9.01-6.41-14.16-5.73-29.02 3.8 12.4 58.19 18.09 66.56 12.52 18.48 29.61 33.7 48.31 45.75 6.47 4.2 13.08 8.21 19.79 12.02 8.71 4.93 17.57 7.9 26.94 11.25 4.57 1.64 9.02 3.4 13.68 4.64 14.23 3.79 28.89 7.12 43.37 9.87.02 0 .04 0 .07.02 16.3 3.09 32.91 5.57 49.65 5.07 2.61-.08 5.51-.06 8.4-.28-.76.17-1.54.35-2.28.5h-.01Zm241.76-197.64c-1.53 2.63-3.1 5.22-4.72 7.79-1.11 1.75-2.25 3.46-3.41 5.18 8.39-6.5 17.99-10.94 28.55-11.6 1.77-.12 3.55-.08 5.34.08-.34-.25-.66-.49-1.01-.74-4.56-3.09-10.42-6.07-16.2-4.99-2.76.5-4.79 1.19-7.61 3.49-.29.26-.61.52-.95.78l.01.01Zm13.04 12.19c-10.39 2.87-19.52 10.78-26.5 18.89-15.58 18.14-27.52 44.51-25.29 68.47.93 10.19 5.1 19.32 13.53 24.82 10.02 6.53 21.64 4.69 31.88-1.19 11.59-6.68 20.88-17.58 28.53-28.45 7.16-10.17 13.36-21.36 17.26-33.18.25-.74.47-1.5.67-2.23.18-.63.46-1.15.77-1.58 2.27-10.28 2.4-20.85-1.98-29.45-1.29-1.07-2.56-2.17-3.77-3.44-2.24-2.38-4.25-5.02-6.28-7.61-8.32-5.48-18.97-7.78-28.82-5.04v-.01Zm-13.65 124.35c-5.6 1.62-11.44 2.16-17.32 1.06-11.55-2.18-21.21-10.14-26.16-20.72-10.17-21.7-1.86-49.54 8.98-70.26-2.92 3.26-5.93 6.43-9.02 9.52-3.86 4.54-8.01 8.65-12.3 12.6-1.86 5.33-3.74 10.69-4.8 16.26-.97 5.15-1.26 10.24-.24 15.33 1.25 6.08 5.02 10.34 8.62 15.02 11.03 14.45 33.6 33.06 52.77 21.51-.18-.1-.37-.2-.53-.32Z" fill="#1A1714"/><path d="M1664.07 491.32c-.78.83-1.84 2.92-4.1 3.69-1.22.42-2.21.64-3.13.36-.68 2.28-3.29 4.1-5.86 2.5-7.33-4.55-14.55-8-23.19-7.79-1.54 1.22-3.12 2.27-4.79 3.34 0 1.98.53 3.6 1.7 5.85 1.43 2.75 3.92 6.02 6.43 8.77 5.21-2.03 10.64-2.59 15.88-4.75.16-.06.33.14.17.26-3.87 2.94-7.74 6.23-11.96 8.63-1.61.92-3.94 3.36-5.95 2.51-1.65-.71-3.39-1.33-4.97-2.2-4.65-2.58-8.34-6.82-10.22-11.87-3.29-8.81-.29-18.3 5.8-25.44 10.83-12.68 35.89-25.93 47.13-8.06 2.47 3.92 2.54 9.41 1.77 13.94-.67 3.97-1.91 7.25-4.72 10.24l.01.02ZM1711.21 377.07c3.27-7.75 6.06-15.73 8.52-23.75 5.15-16.82 8.62-34.14 10.94-51.48 4.43-33.22 3.32-67.31-1.67-100.05-.5-3.33 4.15-4.24 5.02-1.1 9.06 32.61 8.81 67.59 4.01 101.47-2.48 17.53-6.69 34.85-12.97 51.52-3.04 8.08-6.59 15.93-10.67 23.55-1.94 3.61-4.01 7.16-6.27 10.58-1.5 2.26-3.21 4.41-4.76 6.65 3.25-5.39 5.53-11.87 7.86-17.38l-.01-.01Z" fill="#1A1714"/><path d="M1266.21 123.95c10.05-11.86 21.38-22.59 33.24-32.56 23.47-19.73 49.5-35.97 77.46-47.89 15.04-6.41 28.08-10.48 44.26-15.2 7.37-2.15 15-3.16 22.49-4.64 8.28-1.64 16.72-2.39 25.1-2.83 8.05-.42 16.13-.49 24.17-.09.43-.07.86-.08 1.29 0 .2.03.38.07.57.11 1.85.11 3.7.24 5.54.4 5.72.51 11.93.91 17.18 3.29 5.26 2.39 9.51 5.01 15.36 8.16.98.53 1.6 1.39 1.92 2.38 4.98 2.82 9.75 6.06 14.27 9.3 15.98 11.5 29.77 25.91 42.48 40.93 13.64 16.12 26.96 32.57 37.59 51 5.08 8.81 10.79 18 12.17 28.37.06.48.11.98.15 1.48 1.72 3.89 3.26 7.84 4.61 11.84.16.42.3.85.43 1.29 3.84 11.73 6.13 23.92 6.82 36.58.51 9.45.11 18.85-1.13 28.3-6.72 51.22-26.18 105.49-53.35 150.06-2.08 3.42-36.26 41.06-36.21 36.32.09-8.88 4.91-15.38 9.41-23.23 4.83-8.43 11.05-16.13 16.02-24.54 9.98-16.87 17.88-34.86 23.99-53.4 25.37-77 10.61-154.48-58.11-197.41-54.94-34.32-129.37-35.11-183.75 6.52a454.191 454.191 0 0 0-20.2 16.45c-13.25 11.4-25.83 23.61-37.91 36.26-2.88 3.01-5.7 6.07-8.5 9.16-1.24 1.38-2.47 2.76-3.7 4.15-.36.41-1.04 1.19-1.15 1.32-.9 1.04-1.79 2.1-2.69 3.14-5.52 6.5-10.95 13.07-16.37 19.65-19.54 23.69-38.07 48.03-50.68 76.15-.63-.85-1.72-1.27-2.83-1.27 1.08-4.42 2.38-8.81 3.64-13.15 4.25-14.62 9.86-28.71 16.58-42.4 3.5-7.13 21.14-29.68 20.08-36.75-3.06-20.37-40.62 33.35-46.34 40.83-27.07 35.43-41.53 71.82-42.38 115.89-.14 7.62-.31 15.24-.38 22.87-.01 1.96.23 3.96.45 5.96-.37-.03-.74.01-1.12.13-.3-1.99-.59-3.98-.94-5.95-1.25-6.9-1.87-13.9-2.31-20.94-.98-15.91-2.24-33.48 2.45-49.01.06-.23.15-.45.21-.67 3.71-27.08 10.54-53.64 20.53-79.3 11.11-28.53 25.56-55.14 42.54-80.64 8.36-12.56 17.31-24.93 27.06-36.44l-.01.02Z" fill="#fff"/><path d="M406.948 581.79c7.3-1.06 10.93-1.16 10.93-.74 0 .42-3.62 1.37-11.06 2.35-.02-.53.13-1.09.13-1.62v.01ZM544.569 1137.19c9.35-23.48 26.7-43.43 42.13-63.08 17.61-22.43 31.61-44.97 39.66-72.57 10.22-34.97 12-71.96 18.36-107.71 3.41-19.28 8.03-38.5 13.04-57.43 2.37-8.92 4.96-17.78 7.91-26.54 1.42-4.25 3.1-8.43 4.69-12.61.27-.69.6-1.44.96-2.18.59-1.24 1.27-2.52 1.94-3.83 2.26.14 4.54.17 6.84.04 1.17-.06 2.33-.17 3.48-.3a50.59 50.59 0 0 1-1.15 3.55c-.8 2.15-1.66 4.29-2.33 6.39-2.42 7.56-4.55 15.23-6.7 22.89-4.64 16.45-8.21 33.19-11.6 49.94-6.32 31.28-9.47 62.81-14.19 94.31-4.25 28.36-11.36 56.39-25.95 81.29-13.23 22.54-31.34 41.76-46.49 62.96-12.64 17.68-28.62 43.25-23.51 66.09 3.98 17.73 24.03 26.02 39.58 30.65 42.51 12.64 92.89 13.78 133.37-5.04 36.67-17.05 63.67-46.41 93.92-71.97 1.36-1.14 2.73-2.26 4.09-3.39 1.49 2.06 3.16 3.94 4.73 5.35.84.77 1.66 1.42 2.47 2.01-1.65 1.68-3.3 3.35-4.98 5-15.02 14.73-31.16 28.47-47.48 41.55-20.95 16.79-44.03 31.08-69.53 39.83-38.44 13.17-85.49 11.04-124.15-1.07-16.09-5.03-32.09-13.41-41.11-28.21-10.49-17.16-4.9-38.63 2-55.94v.02Z" fill="#1A1714"/><path d="M804.71 809.71c.39-1.74.81-3.46 1.21-5.19 3.27.47 6.59.71 9.9.68-.36 2.31-.75 4.63-1.09 6.94-7.85 53.04-9.92 107.29-11.11 160.51-1.12 50.01 1.51 105.13 28.68 148.26 1.57 2.48 3.22 4.94 4.95 7.36 3.28 4.56 6.88 8.96 10.83 13.21 38.12 40.99 99.57 48.4 152.37 43.54 54.18-5.02 105.89-24.17 152.31-52.13 89.95-54.19 156.41-138.09 240.96-199.33 49.59-35.91 104.14-59.83 163.6-74.06 60.71-14.54 123.3-19.6 184.92-28.74 48.56-7.17 97.94-16.88 143.78-34.87 39.71-15.61 82.47-41.74 96.45-84.47 7.93-24.25 3.16-48.34-7.03-70.86-3.4-7.5-7.42-14.84-11.93-21.85-4.81-6.49-9.82-12.78-15.01-18.92a447.554 447.554 0 0 0-18.95-19.49c-6.5-6.28-13.15-12.36-19.94-18.25-5.04-6.93-11.46-11.83-18.36-16.29-6.9-4.44-14.24-8.45-21.03-13.75-17.01-10.96-34.06-23.06-51.09-35.18-8.05-5.74-16.1-11.47-24.14-17.07-1.51-1.08-3.04-2.14-4.54-3.18-.28-.21-.53-.39-.8-.57-.16-.12-.34-.22-.5-.35.51-1.19.92-2.45 1.23-3.74.29.16.61.32.9.48l1.02.54c1.63.86 3.24 1.71 4.84 2.59 32.97 17.94 63.36 40.05 94.74 62.2 5.7 4.06 11.31 8.29 16.78 12.71 6.43 5.89 12.78 11.89 19.04 17.99 6.29 6.09 12.52 12.26 18.72 18.45 6.12 6.57 11.82 13.2 17.38 19.75 4.3 5.06 8.5 10.08 12.64 15.06 1.25 1.49 2.49 2.96 3.72 4.44.64 1.3 1.26 2.59 1.88 3.92.2.45.42.9.65 1.37 2.7 5.92 5.07 11.96 7.05 18.09 7.7 23.93 9.21 49.18-.31 73.63-17.34 44.56-62.61 70.7-105.06 86.97-53.46 20.47-111.45 29.42-167.89 37.13-63.1 8.61-126.65 15.41-187.9 33.76-31.37 9.4-61.53 22.45-89.57 39.43-23.14 14.03-44.39 31.36-65.23 48.56-79.9 65.93-148.77 146.88-242.59 194.14-47.26 23.81-99.64 37.63-152.56 39.15-51.84 1.49-108.34-11.38-144.86-50.63-3.18-3.41-6.16-6.96-8.93-10.63-2.24-2.91-4.34-5.92-6.31-8.97-26.04-40.02-32.79-91.58-32.59-138.3.24-61.62 5.44-123.79 18.79-184.04h-.02Z" fill="#1A1714"/><path d="M1787.9 478.22c.43.26.88.52 1.32.79 1.57.95 3.16 1.89 4.73 2.82 8.4 5.01 16.81 9.98 25.19 15.02 18.22 10.94 36.29 22.12 53.65 34.49 21.44 15.29 42.72 31.51 61.78 49.74 9.9 9.46 19.86 19.26 27.73 30.53 5.1 7.32 9.41 15.81 15.82 22.05 1.81 1.79 4.85-.11 4.58-2.23-.04-.37-.17-.76-.48-1.14-.05-.09-.12-.15-.17-.23-2.04-2.66-3.84-5.48-5.6-8.35-4.69-7.79-8.81-16.04-14.54-23.27-7.38-9.29-15.75-18.02-24.33-26.21-17.87-17.07-37.07-32.63-57.21-46.96-26.18-18.65-53.53-36.59-81.61-53.03-1.56-.93-3.15-1.85-4.74-2.75a71.6 71.6 0 0 0-2.09-1.23 15.3 15.3 0 0 1-.65 4.15c-.37 1.27-.92 2.49-1.63 3.6-.49.8-1.08 1.53-1.75 2.2v.01ZM895.93 585.2c3.48.45 6.95 1.27 10.27 2.23.89-.64 1.75-1.28 2.65-1.86 1.34-.87 2.7-1.71 4.04-2.55 12.31-7.66 24.94-14.48 38.25-20.35 16.35-7.22 33.21-13.46 50.29-19 4.94-1.61 9.91-3.16 14.89-4.66 7.46-2.25 14.94-4.37 22.46-6.43 31.59-8.65 63.6-15.53 95.79-21.64.29-.06.57-.1.85-.16 2.5-.49 5.02-.95 7.52-1.42 3.65-.7 7.29-1.41 10.94-2.09 2.94-.56 5.87-1.11 8.81-1.67 1.96-.37 3.94-.74 5.9-1.11-4.01-3.83-7.48-8.16-10.28-12.89-1.19.24-2.39.48-3.59.72-2.98.58-5.98 1.18-8.96 1.78-4.85.97-9.69 1.98-14.54 2.99-.3.08-.63.14-.93.21-.22.06-.41.09-.63.14-31.76 6.74-63.49 13.99-94.63 23.2-8.98 2.64-17.85 5.48-26.65 8.51-2.89.99-5.78 2.01-8.67 3.04-17.84 6.4-35.36 13.64-52.63 21.7-13.61 6.34-27.61 13.04-39.83 21.86a78.468 78.468 0 0 0-4.16 3.22c-2.44 1.98-4.81 4.09-7.15 6.21l-.01.02Z" fill="#1A1714"/><path d="M998.889 535.85c2.701-2.39 5.721-3.5 8.681-3.62.27-1.03.55-2.05.8-3.08 1.3-5.15 2.49-10.33 3.64-15.45 6.65-29.85 11.56-59.89 16.4-90.08 4.9-30.64 9.04-61.36 11.69-92.29 2.54-29.87 4.87-60.21 12.95-89.2 6.89-24.72 16.45-49.66 30-71.58 11.97-19.37 28.47-40.01 52.95-41.98 23.43-1.91 46.02 5.75 67.24 14.94 5.15 2.22 10.3 4.78 15.43 7.38 1.22.64 2.46 1.25 3.68 1.89 2.82-5.23 6.38-9.95 10.66-13.72-1.29-.61-2.59-1.2-3.9-1.76-8.13-3.69-16.38-7.04-24.37-10.14-21.39-8.31-46.09-16.71-69.38-13.18-48.47 7.35-70.68 56.99-86.06 98.08-10.89 29.12-15.22 59.76-18.18 90.56-2.98 31.25-5.42 62.5-8.93 93.7-3.77 33.54-8.97 66.92-15.77 99.98-2.36 11.51-4.06 23.87-6.721 35.9a91.41 91.41 0 0 1-.81 3.65ZM1009.11 535.27c.68-.31 1.3-.65 1.9-1.02 23.45 20.83 45.81 43.23 65.3 67.17 15.55 19.11 29.74 39.28 45.64 58.11 14.33 16.96 30.43 31.89 52.66 37.02 20.88 4.82 44.69-7.26 52.11-27.63 6.75-18.52-2.25-39.79-11.05-55.96-10.94-20.12-27.17-37.96-41.73-55.5-15.39-18.53-31.12-36.58-45.59-55.87-1.95-2.61 2.29-6.14 4.43-3.64 33.05 38.7 77.48 71.83 99.78 118.5 8.2 17.17 12.88 36.82 7.39 55.5-5.76 19.6-25.39 35.1-45.34 37.79-49.13 6.64-81.23-39.4-107.23-73.48-17.6-23.06-36.04-44.65-56.74-64.99-11.33-11.13-23.06-21.77-34.581-32.63 4.311-.32 8.661-1.38 13.051-3.36v-.01Z" fill="#1A1714"/><path d="M993.289 631.94c11.581-18.88 42.801-31.28 63.781-33.98 5.17-.67 5.52 6.52 1.46 8.3-9.69 4.27-20.07 6.86-29.83 11.06-11.43 4.92-20.98 11.68-31.12 18.63-2.47 1.7-5.89-1.42-4.3-4.02l.009.01ZM1560.37 677.31c3.81-2.9 7.26-6.22 11.29-8.89 9.69-6.41 20.49-10.88 31.11-15.48 15.72-6.8 32.11-11.8 48.8-15.55 33.05-7.44 66.83-10.69 100.54-13.13 3.04-.22 3.04 4.12.2 4.59-32.63 5.45-65.49 10.23-97.38 19.24-15.25 4.31-30.28 9.5-44.92 15.58-8.41 3.49-16.31 8.04-24.32 12.33-5.33 2.85-10.55 5.97-16.19 8.18-2.52.98-5.16 1.52-7.68 2.45-2.12.79-4.06 2.3-6.25 2.87-2.45.63-5.49 1.54-7.84.16 2.97-4.42 6.99-8.27 11.3-11.36.45-.32.9-.65 1.33-.99h.01Z" fill="#1A1714"/><path d="M395.809 604.51c1.31-9.56 3.97-18.59 10.44-26.43a35.65 35.65 0 0 1 5.2-5.15c1.9-1.52 3.96-2.83 6.18-3.87 2.46-1.48 5.04-2.77 7.71-3.82 1.75-.7 3.54-1.31 5.35-1.84 10.12-2.95 20.89-3.36 31.89-2.29 21.96 2.14 44.72 10.15 64.39 15.52 15.56 5.68 31.2 12.01 47.12 17.05 15.94 5.04 32.21 8.79 49.32 9.5 35.5 1.45 69.81-7 104.09-15 57.22-13.32 118.26-30.62 175.59-9.21 2.07.77 4.13 1.58 6.18 2.46 1.22.5 2.43 1.03 3.62 1.58 28.95 12.64 56.3 29.1 80.06 49.71 1.36 1.16 2.7 2.36 4.02 3.56 14.281 12.89 27.151 27.3 38.161 43.34 21.99 32.07 30.21 69.96 34.98 107.94 5.36 42.69 3.55 87.22-3.06 129.68-.44 2.88-4.58 1.76-4.32-1 3.34-34.7 4.53-69.29 1.31-104.03-3.03-33.06-7.21-68.19-21.72-98.49-24.65-51.46-70.751-88.41-121.091-113.08-29.92-14.67-60.85-20.28-94.05-18.12-32.47 2.1-64.15 11.06-95.65 18.49-32.8 7.74-65.22 15.27-99.1 15.71-16.16.22-31.67-2.09-46.86-5.9-15.19-3.79-30.07-9.08-44.95-14.73-11.36-3.27-22.99-7.32-34.54-11.26-15.51-3.64-33.33-8.75-50.67-10.13-2.55-.2-5.19-.34-7.88-.38-7.55-.97-13.9-.34-19.21 1.54-2.65.94-5.05 2.19-7.2 3.72a36.46 36.46 0 0 0-10.18 11.6 36.86 36.86 0 0 0-3.37 6.93c-.86 2.35-1.47 4.75-1.89 7.18-2.17 12.44-1 27.11 1.5 39.43.6 2.96 1.3 5.83 2.08 8.57.47 2.03.98 4.05 1.52 6.05 3.22 12.04 7.64 23.75 13.09 34.95 10.08 20.79 24.2 40.85 41.29 57.62 8.56 8.39 17.83 15.95 27.72 22.39 15.33 7.97 31.38 20.29 48.91 19.33 45.06-.46 89.83-6.37 134.35-9.24 2.8-.17 5.58-.35 8.39-.5 1.49-.08 3-.14 4.49-.22 16.22-.78 32.42-1.03 48.58-.12 23.46-2.55 46.77 5.93 70.06 13.41 3 .96 5.99 1.89 9.01 2.8 24.93 7.52 49.81 12.12 74.79-1.02-22.4 20.67-48.85 19.63-76.73 13.39-3.31-.76-6.66-1.57-10.02-2.44-28.97-7.45-59.14-18.37-87.65-14.8-11.5-.62-23.05-.74-34.63-.37-2.06.07-4.15.16-6.21.25-1.64.09-3.26.18-4.91.29-25.73 1.56-51.74 5.73-78.18 13.36-38.96 10.92-78.87 4.3-111.95-21.25-9.23-6.42-17.92-13.83-25.85-21.99-15.88-16.36-28.78-35.72-37.41-56.19-5.54-11.74-10.04-23.98-13.51-36.46a237.325 237.325 0 0 1-5.52-25.25c-.57-2.13-1.07-4.24-1.49-6.34-1.07-4.94-2.17-9.98-2.65-15.16-.24-2.59-.32-5.22-.16-7.9.27-4.53.59-9.01 1.19-13.38l.03.01Z" fill="#1A1714"/><path d="M1949.2 957.68c-2.41-19.3-17.72-38.2-33.78-48-15.78-9.63-32.55-11.91-50.4-14.54-10.09-1.48-20.27-2.09-30.47-2.02-5.62.04-11.37.22-17.1.68-14.37-4.5-29.71-6.63-44.65-8.39-9.49-1.12-19.2-.91-28.76-1.03-4.64-.06-9.31 0-13.98.18-4.86-4.71-10.19-8.75-15.83-13.19-12.24-9.65-26.96-11.54-40.89-16.47-41.93-19.56-86.1-36-133.26-34.11-7.84.31-15.26 1.59-22.16 4.17-5.34-1.58-10.61-3.35-15.78-5.38-13.89-5.46-32.29-2-44.86 5.07-2.18 1.23-4.26 2.6-6.25 4.09-25.37 1.53-50.64 5.12-75.8 8.79-24.2 2.05-48.7 5-72.14 10.97-5.2 1.32-10.34 2.95-15.41 4.73-25.15 8.79-49.77 19.18-74.23 29.72-13.79 5.95-26.99 13.42-39.79 21.7-1.49.31-2.99.64-4.48.97-6.72 1.52-13.22 4.03-19.61 6.56-8.92 3.52-17.81 7.09-26.67 10.67-47.07 16.54-76.23 26.94-112.52 62.92-2.19 2.18-4.39 4.36-6.59 6.54-3.28 3.27-6.571 6.54-9.861 9.83-1.65 1.64-3.28 3.27-4.93 4.91-3.26 3.17-6.39 6.41-9.44 9.7-17.36 15.89-32.41 34.17-45.15 54.86-8.99 14.89-16.31 30.27-22 46.13-12.16 23.32-21.96 48.94-31.83 71.87-5.62 13.06-10.14 26.63-13.76 40.4-4.81 1.87-9.33 4.2-13.23 6.84-15 10.2-24 20.2-34.82 34.82-4.26 5.75-7.89 11.94-11.71 17.98-5.31 8.39-11.89 15.89-17 24.49a184.52 184.52 0 0 0-7.49 14.04c.8 1.72 1.11 3.63.66 5.56-5.3 22.88-11.78 46.45-13.19 70.12.56.32 1.1.66 1.65.99-.6 1.87-.94 3.85-.94 5.91 0 32.03-.06 64.07-2.37 96.03-.73 10.1 7.49 18.85 17 20.72 7.52 18.87 24.06 34.49 40.11 45.84 9.07 6.41 19.36 11.62 29.07 17.01 11.3 6.28 23.15 11.96 35.51 15.79 6.51 2.02 13.28 2.66 20.04 3.18 2.84.22 5.68.38 8.51.57.08 0 .15.01.23.02 1.41 4.67 4.36 8.78 8.87 10.99.34.17.66.35.98.54.68.57 2.27 1.82 2.84 2.37 3.71 3.59 7.36 7.04 11.5 10.17 7.32 5.54 16.16 7.5 24.67 5.7 2.89 1.94 5.8 3.84 8.79 5.68 3.66 2.24 7.39 4.37 11.16 6.4 46.331 25.01 100.021 34.79 152.121 28.12 10.15-1.29 20.24-3.21 30.2-5.76 46.33-11.87 88.38-37.14 120.89-71.71 2.8-2.95 5.5-5.98 8.14-9.07a249.312 249.312 0 0 0 23.39-32.25c.77-1.73 1.54-3.47 2.31-5.2 7.62-17.23 15.25-34.44 22.86-51.65 19.67-19.31 35.64-40.85 47.93-64.64 13.85-8.27 28.03-16 42.18-23.7 10.93-5.95 21.84-11.94 32.6-18.19 8.07 4.75 16.4 9.06 24.93 12.87 6.85 5.23 14.03 10.15 21.52 14.76 57.64 35.13 128.46 45.57 193.87 28.81 63.34-16.24 118.73-57.46 152.75-113.27 8.82-19.93 17.64-39.86 26.47-59.8 12.78-44.48 13.56-89.18 2.34-134.07-8.45-24.43-16.38-49.72-29.4-72.13-.64-1.09-1.28-2.17-1.93-3.25 12.89-2.93 25.77-8.7 36.98-15.7 16.36-10.22 26.94-20.87 38.57-35.85 5.15-6.62 8.46-15.48 11.19-23.02 4.94-13.62 3.36-25.58 1.64-39.37l-.01-.02Z" fill="#fff" stroke-width="7"/><path d="M987.829 1008.68s-1.32 1.33-3.8 3.82c-1.25 1.24-2.79 2.76-4.6 4.55-.91.89-1.88 1.85-2.92 2.88-.99 1.06-2.04 2.2-3.14 3.39-2.2 2.37-4.64 5-7.3 7.85-2.53 2.99-5.24 6.23-8.19 9.62-5.72 6.95-11.82 15.03-18.08 24.06-1.63 2.21-3.07 4.62-4.59 7.04-1.52 2.41-3.07 4.87-4.64 7.37-1.5 2.54-2.93 5.18-4.45 7.82-1.49 2.66-3.12 5.27-4.48 8.09-1.41 2.79-2.85 5.61-4.3 8.47-.75 1.41-1.41 2.89-2.05 4.38-.66 1.48-1.32 2.97-1.98 4.47-2.81 5.92-5.07 12.22-7.65 18.5-1.21 3.17-2.24 6.44-3.36 9.69-.55 1.63-1.1 3.27-1.65 4.91-.47 1.67-.94 3.34-1.41 5.03-.48 1.68-.95 3.36-1.43 5.05-.46 1.69-1.02 3.36-1.38 5.09-.81 3.43-1.64 6.87-2.5 10.32-3.01 13.89-5.22 28.18-6.18 42.58-1.02 14.39-.99 28.83-.12 43.01 1.22 14.15 2.91 28.06 5.77 41.34.73 3.31 1.61 6.56 2.37 9.81.39 1.62.77 3.24 1.16 4.85.46 1.59.92 3.16 1.38 4.73.91 3.15 1.81 6.26 2.7 9.33 1.05 3.03 2.08 6.02 3.1 8.97.52 1.48 1.03 2.94 1.54 4.4.58 1.43 1.16 2.84 1.73 4.25 1.13 2.83 2.24 5.61 3.34 8.35 1.15 2.72 2.41 5.32 3.58 7.93.59 1.3 1.17 2.59 1.75 3.86.57 1.28 1.14 2.55 1.79 3.75 1.27 2.43 2.52 4.82 3.74 7.15 1.22 2.34 2.35 4.66 3.66 6.8 1.26 2.18 2.49 4.3 3.68 6.36 1.21 2.06 2.29 4.12 3.56 5.97 2.47 3.75 4.75 7.3 6.85 10.6 2.26 3.19 4.34 6.12 6.22 8.77.95 1.33 1.84 2.58 2.69 3.76.89 1.15 1.73 2.22 2.5 3.22 1.56 2 2.89 3.71 3.96 5.09 2.15 2.79 3.29 4.28 3.29 4.28s-1.42-1.22-4.1-3.51c-1.33-1.16-2.97-2.59-4.89-4.27-.96-.85-2.01-1.74-3.09-2.74-1.03-1.04-2.13-2.14-3.29-3.31-2.32-2.34-4.93-4.91-7.71-7.78-2.64-2.98-5.48-6.23-8.48-9.75-1.56-1.71-2.95-3.65-4.47-5.58-1.5-1.95-3.04-3.96-4.62-6.02-1.63-2.04-3.08-4.28-4.61-6.54-1.51-2.28-3.06-4.61-4.64-6.99-.82-1.18-1.55-2.42-2.28-3.68-.74-1.26-1.49-2.53-2.25-3.81-1.49-2.58-3.09-5.17-4.56-7.89-1.4-2.76-2.83-5.56-4.27-8.41-.72-1.43-1.44-2.87-2.16-4.33-.64-1.49-1.29-2.99-1.94-4.5-1.31-3.02-2.64-6.09-3.99-9.19-1.18-3.17-2.38-6.38-3.59-9.63-.59-1.63-1.19-3.27-1.79-4.92-.51-1.68-1.02-3.36-1.54-5.05-1-3.39-2.1-6.81-2.99-10.3-3.58-13.97-6.43-28.67-7.91-43.8-1.39-15.13-1.45-30.6-.46-46 1.26-15.4 3.85-30.64 7.29-45.42.94-3.68 1.91-7.33 2.9-10.96.45-1.83 1.1-3.59 1.67-5.37l1.77-5.31c.59-1.76 1.18-3.52 1.77-5.27.67-1.72 1.35-3.43 2.02-5.14 1.36-3.4 2.61-6.82 4.02-10.13 2.96-6.58 5.77-13.08 9.17-19.13l2.44-4.55c.8-1.51 1.61-3.01 2.51-4.44 1.75-2.89 3.48-5.75 5.19-8.57 1.63-2.86 3.55-5.49 5.33-8.14 1.82-2.63 3.57-5.24 5.39-7.73 1.9-2.43 3.77-4.83 5.61-7.18 1.85-2.34 3.6-4.67 5.54-6.78 7.37-8.75 14.77-16.16 21.54-22.43 3.44-3.09 6.66-5.96 9.68-8.55 3.16-2.45 6.06-4.7 8.69-6.73 1.3-1.01 2.53-1.97 3.69-2.87 1.21-.82 2.34-1.59 3.4-2.3 2.12-1.42 3.92-2.62 5.38-3.6 2.94-1.93 4.51-2.95 4.51-2.95l-.04-.01ZM777.998 1405.7s-.14 1.23-.29 3.54c-.2 2.3-.32 5.69-.49 9.96-.16 4.27-.15 9.45-.07 15.34.11 5.89.54 12.51 1.11 19.65.7 7.14 1.81 14.79 3.31 22.74.76 3.98 1.71 8.02 2.82 12.09 1.07 4.08 2.35 8.18 3.69 12.31 1.33 4.14 3.01 8.22 4.77 12.29 1.84 4.04 3.79 8.08 5.88 12.06 2.15 3.95 4.43 7.88 7 11.62 2.51 3.78 5.3 7.4 8.21 10.9 5.76 7.05 12.24 13.52 19.14 19.37 6.98 5.73 14.19 11.1 21.71 15.58 7.53 4.44 15.02 8.53 22.43 11.93 7.45 3.29 14.61 6.32 21.37 8.82 3.38 1.24 6.68 2.32 9.78 3.46 3.15 1.03 6.14 2.02 8.95 2.94 2.84.82 5.5 1.64 7.96 2.42 2.48.73 4.75 1.39 6.81 2 4.15 1.17 7.41 2.09 9.63 2.71 2.23.65 3.42 1 3.42 1s-1.24.04-3.56.11c-2.31-.01-5.75.23-10.07 0-2.17-.08-4.58-.12-7.2-.26-2.61-.18-5.44-.39-8.47-.68-3.02-.31-6.23-.69-9.63-1.1-3.37-.54-6.94-1.05-10.62-1.82-7.39-1.41-15.37-3.34-23.65-6.05-8.28-2.7-16.94-6.02-25.48-10.48-8.54-4.43-17.22-9.53-25.26-15.9-8.11-6.26-15.6-13.66-22.3-21.7-6.56-8.17-12.22-17.06-16.85-26.22-2.35-4.57-4.29-9.29-6.01-13.99-1.65-4.73-3.13-9.45-4.35-14.12-1.25-4.67-2.23-9.32-2.92-13.9-.73-4.57-1.2-9.07-1.55-13.44-.76-8.73-.58-17-.08-24.54.47-7.55 1.47-14.4 2.61-20.39 1.06-6.01 2.44-11.14 3.67-15.33 1.15-4.2 2.4-7.41 3.2-9.59.86-2.17 1.38-3.3 1.38-3.3v-.03ZM1749.42 896.58l-5.78-4.46c-.94-.72-1.95-1.59-3.16-2.42-1.19-.84-2.49-1.75-3.89-2.74-1.41-.98-2.87-2.08-4.52-3.16-1.64-1.08-3.39-2.22-5.23-3.43-.92-.6-1.87-1.22-2.83-1.85-1-.59-2.02-1.2-3.06-1.82-2.1-1.23-4.25-2.58-6.56-3.87-2.32-1.27-4.73-2.59-7.24-3.96-2.5-1.37-5.18-2.63-7.88-4.04-10.94-5.4-23.6-10.74-37.7-15.74-14.12-4.92-29.73-9.26-46.41-12.97-16.71-3.64-34.58-6.19-53.09-8.04-2.31-.27-4.64-.41-6.98-.59-2.34-.17-4.68-.37-7.04-.5-4.72-.19-9.47-.52-14.25-.57-9.57-.32-19.25-.13-28.99.05-9.74.37-19.54.96-29.32 2.03-9.77 1.11-19.57 2.4-29.22 4.32-9.67 1.82-19.28 3.85-28.65 6.65-2.43.68-4.86 1.36-7.28 2.04l-3.63 1.01c-1.22.33-2.43.67-3.56 1.06-4.61 1.5-9.21 3-13.79 4.49-1.14.39-2.29.74-3.43 1.15l-3.39 1.3c-2.26.86-4.52 1.71-6.78 2.57-2.26.85-4.51 1.69-6.76 2.53-2.21.91-4.39 1.89-6.58 2.83-2.19.94-4.36 1.88-6.54 2.82-2.17.94-4.36 1.83-6.44 2.92-4.2 2.1-8.37 4.19-12.5 6.25-16.23 8.84-31.38 18.38-44.97 28.62-3.33 2.63-6.55 5.33-9.77 7.92-1.6 1.31-3.23 2.56-4.77 3.9-1.51 1.37-3.01 2.72-4.5 4.07-2.96 2.7-5.96 5.28-8.78 7.95-2.75 2.74-5.44 5.44-8.08 8.07l-3.91 3.94c-1.23 1.36-2.44 2.71-3.64 4.04-2.41 2.66-4.77 5.25-7.07 7.78-1.18 1.24-2.24 2.56-3.3 3.84-1.06 1.29-2.11 2.55-3.15 3.8-2.08 2.5-4.09 4.93-6.04 7.29-3.71 4.88-7.18 9.45-10.39 13.67-1.66 2.09-3.08 4.2-4.48 6.19-1.4 2-2.74 3.9-4.01 5.71-2.52 3.63-4.84 6.84-6.67 9.75-1.89 2.88-3.49 5.33-4.79 7.31-2.63 3.97-4.04 6.09-4.04 6.09s1.06-2.3 3.06-6.63c1.01-2.16 2.26-4.82 3.73-7.95 1.41-3.16 3.29-6.66 5.41-10.58 1.05-1.97 2.16-4.04 3.32-6.21 1.17-2.17 2.34-4.48 3.76-6.76 2.77-4.61 5.71-9.65 9.05-14.92 1.74-2.59 3.53-5.27 5.38-8.02.93-1.38 1.87-2.77 2.83-4.19.96-1.42 1.91-2.87 3-4.24 2.12-2.8 4.3-5.67 6.53-8.61 1.12-1.47 2.26-2.95 3.41-4.45 1.23-1.44 2.47-2.89 3.72-4.36 2.51-2.94 5.08-5.94 7.69-9 2.7-2.99 5.6-5.89 8.48-8.92l4.4-4.55c1.51-1.5 3.13-2.91 4.71-4.38 3.2-2.91 6.41-5.91 9.77-8.84 13.61-11.51 28.93-22.59 45.83-32.35 4.28-2.32 8.6-4.66 12.95-7.02 2.15-1.23 4.41-2.25 6.66-3.33 2.25-1.07 4.51-2.14 6.77-3.21 2.27-1.06 4.53-2.17 6.83-3.2 2.33-.95 4.67-1.91 7.01-2.86 2.35-.95 4.7-1.9 7.06-2.85l3.55-1.42c1.2-.45 2.43-.84 3.64-1.27 4.87-1.68 9.76-3.36 14.67-5.05 1.24-.45 2.44-.8 3.65-1.14l3.62-1.05 7.26-2.1c9.95-3.04 20.18-5.25 30.39-7.22 10.24-1.91 20.57-3.16 30.85-4.21 10.29-1 20.56-1.51 30.75-1.78 10.19-.15 20.31-.04 30.26.64 4.98.23 9.92.75 14.82 1.14 2.45.22 4.88.52 7.31.78 2.42.27 4.85.49 7.24.83 19.22 2.39 37.58 6.28 54.68 10.97 17.11 4.67 32.89 10.47 47.03 16.69a283.61 283.61 0 0 1 37.24 19.6c2.64 1.69 5.23 3.25 7.63 4.92 2.39 1.68 4.69 3.3 6.91 4.85 2.19 1.59 4.21 3.22 6.18 4.72.98.76 1.93 1.5 2.86 2.22.9.76 1.78 1.5 2.64 2.22 1.71 1.44 3.33 2.8 4.85 4.08 1.51 1.29 2.85 2.62 4.12 3.8 2.54 2.38 4.67 4.39 6.3 6.13l5.03 5.29v-.01Z" fill="#1A1714"/><path d="M1265.08 911.2s-2.12.03-6.08.09c-2.01.07-4.48.16-7.39.26-2.91.11-6.26.34-10.01.55-14.98 1.07-36.44 3.32-61.75 8.8a476.129 476.129 0 0 0-40.45 10.63c-14.18 4.45-28.95 9.78-43.89 16.15-29.89 12.68-60.45 29.57-88.36 50.24-27.931 20.61-53.061 45.11-72.681 71.19-4.91 6.51-9.46 13.13-13.72 19.73-4.17 6.66-8.13 13.25-11.6 19.9a271.58 271.58 0 0 0-16.98 38.66 270.205 270.205 0 0 0-9.58 34.47c-1.14 5.21-1.91 10.15-2.67 14.71-.61 4.58-1.25 8.78-1.57 12.61l-.54 5.42c-.12 1.71-.22 3.3-.32 4.79-.1 1.49-.19 2.87-.28 4.13-.05 1.26-.09 2.41-.13 3.44-.14 4.11-.21 6.31-.21 6.31v-9.76c.04-1.26.09-2.65.14-4.14.05-1.49.1-3.1.16-4.81.11-1.71.23-3.53.36-5.45.19-3.85.69-8.08 1.14-12.7.6-4.6 1.21-9.59 2.17-14.88 1.82-10.58 4.51-22.44 8.46-35.09 3.93-12.65 9.12-26.1 15.84-39.75 3.28-6.87 7.08-13.71 11.09-20.63 4.1-6.87 8.49-13.76 13.27-20.57 9.56-13.6 20.47-26.96 32.56-39.59 2.98-3.2 6.13-6.25 9.24-9.38 3.19-3.04 6.35-6.12 9.65-9.07 3.24-3.01 6.63-5.88 9.97-8.8 3.42-2.83 6.8-5.72 10.311-8.45 27.84-22.15 58.58-40.57 88.85-54.67 15.13-7.08 30.15-13.09 44.61-18.19 14.48-5.05 28.42-9.16 41.42-12.43 26.01-6.59 48.27-9.71 63.89-11.37 3.91-.35 7.41-.72 10.45-.94 3.05-.21 5.65-.4 7.75-.54 4.26-.21 6.54-.32 6.54-.32a9.47 9.47 0 0 1 4.03.61c1.22.46 2.34 1.14 3.28 2 1.88 1.71 3.09 4.11 3.17 6.8.19 5.38-4.29 9.83-9.78 10.05-.1 0-.24 0-.35.01l-.01-.02Z" fill="#1A1714"/></g><defs><clipPath id="a"><path fill="#fff" d="M0 0h2386.5v1685.41H0z"/></clipPath></defs></svg>